<?xml version="1.0" encoding="UTF-8" standalone="no"?>
<svg
   version="1.1"
   width="1133.8583pt"
   height="1133.8583pt"
   id="svg282"
   viewBox="0 0 1133.8583 1133.8583"
   sodipodi:docname="Backup_of_LOIDS_Marine.cdr"
   xmlns:inkscape="http://www.inkscape.org/namespaces/inkscape"
   xmlns:sodipodi="http://sodipodi.sourceforge.net/DTD/sodipodi-0.dtd"
   xmlns:xlink="http://www.w3.org/1999/xlink"
   xmlns="http://www.w3.org/2000/svg"
   xmlns:svg="http://www.w3.org/2000/svg">
  <sodipodi:namedview
     id="namedview284"
     pagecolor="#ffffff"
     bordercolor="#000000"
     borderopacity="0.25"
     inkscape:showpageshadow="2"
     inkscape:pageopacity="0.0"
     inkscape:pagecheckerboard="0"
     inkscape:deskcolor="#d1d1d1"
     inkscape:document-units="pt" />
  <path
     d="M 123.6441,931.6245 V 186.6852 h 890.7319 v 744.9393 z"
     style="fill:#ffffff;fill-rule:evenodd"
     id="path2" />
  <path
     d="m 636.901,575.4939 c 40.2151,-40.2151 40.2151,-105.4144 0,-145.6287 -40.2121,-40.2129 -105.4136,-40.2129 -145.6264,0 -40.2144,40.2143 -40.2144,105.4136 0,145.6287 40.2128,40.2144 105.4143,40.2144 145.6264,0 z"
     style="fill:#ffffff;fill-rule:evenodd"
     id="path4" />
  <path
     d="m 710.5665,596.9651 -15.6915,-15.8198 12.5536,-23.1605 c 0.2061,-0.3781 0.3103,-0.8008 0.302,-1.2303 -0.01,-0.4295 -0.1299,-0.8492 -0.3473,-1.2168 -0.2196,-0.3691 -0.5336,-0.6726 -0.9073,-0.8847 -0.3729,-0.2113 -0.7948,-0.3215 -1.2243,-0.3215 -0.237,0 -0.4733,0.0362 -0.7005,0.1064 -8.1242,2.3702 -16.3791,4.2776 -24.7207,5.7118 -0.3759,0.0679 -0.7292,0.2212 -1.0371,0.4469 -0.305,0.2279 -0.5548,0.5215 -0.7307,0.8612 -4.2859,8.2843 -9.4309,16.0968 -15.348,23.3084 -0.3374,0.4099 -0.5336,0.9187 -0.5593,1.4501 -0.0257,0.5314 0.1177,1.0567 0.4136,1.4998 l 12.6699,19.0089 c 0.2272,0.3435 0.5389,0.6235 0.9043,0.8152 0.3661,0.1918 0.7752,0.2891 1.1866,0.2831 0.1079,0.0106 0.2173,0.0106 0.3253,0 10.7926,-1.4259 21.4613,-3.6828 31.9089,-6.7482 0.4076,-0.1215 0.7768,-0.3472 1.0704,-0.6552 0.2959,-0.3072 0.505,-0.6869 0.6114,-1.0983 0.1057,-0.4136 0.1019,-0.8469 -0.0106,-1.2583 -0.1094,-0.4113 -0.3276,-0.7865 -0.6265,-1.0884 z m -33.2466,8.368 -12.7,-19.0293 c 6.0251,-7.3294 11.2583,-15.274 15.6076,-23.7062 8.4006,-1.4576 16.7105,-3.3929 24.8891,-5.7956 l -13.3817,24.7826 17.0222,17.1158 c -10.3011,3.0178 -20.8182,5.2468 -31.4575,6.6644 z"
     style="fill:#21324b;fill-rule:evenodd"
     id="path6" />
  <path
     d="m 448.9391,561.4057 c -0.1758,-0.3374 -0.4257,-0.6295 -0.7329,-0.8552 -0.3057,-0.2234 -0.659,-0.3751 -1.0349,-0.4431 -8.3076,-1.4417 -16.5262,-3.3552 -24.6165,-5.7314 -0.228,-0.0664 -0.4635,-0.1019 -0.699,-0.1064 -0.3699,0.002 -0.7329,0.086 -1.0666,0.246 -0.3336,0.1578 -0.6272,0.3895 -0.859,0.6749 -0.3094,0.3812 -0.4974,0.8446 -0.5412,1.3322 -0.046,0.4892 0.0559,0.9783 0.2899,1.4101 l 12.5536,23.1604 -15.6937,15.8077 c -0.2974,0.3057 -0.5125,0.6809 -0.625,1.093 -0.1117,0.4114 -0.1155,0.8446 -0.01,1.2575 0.1057,0.4137 0.3155,0.7934 0.6114,1.1028 0.2936,0.3073 0.6627,0.5352 1.0703,0.659 10.4431,3.0676 21.1081,5.3223 31.8984,6.7482 h 0.3337 c 0.4091,0.0121 0.8129,-0.0777 1.1783,-0.2597 0.3653,-0.1834 0.6793,-0.4529 0.9148,-0.7865 l 12.6797,-19.0187 c 0.2936,-0.4416 0.4393,-0.9647 0.4136,-1.4938 -0.0279,-0.5314 -0.2234,-1.0372 -0.5593,-1.4463 -5.9798,-7.2139 -11.1761,-15.0407 -15.5058,-23.3507 z m 0.7745,43.9395 c -10.6544,-1.4183 -21.1836,-3.6451 -31.4991,-6.6644 l 17.032,-17.1158 -13.4231,-24.8151 c 8.1785,2.4027 16.4885,4.3381 24.889,5.7964 4.3795,8.4458 9.6399,16.4062 15.6914,23.7477 z"
     style="fill:#21324b;fill-rule:evenodd"
     id="path8" />
  <path
     d="m 691.7372,581.5846 13.3809,-24.7826 c -8.1801,2.4027 -16.4885,4.338 -24.8883,5.7956 -4.3501,8.4322 -9.5826,16.3791 -15.6076,23.7062 l 12.6774,19.0195 c 10.6514,-1.4183 21.1782,-3.6451 31.4915,-6.6644 z"
     style="fill:#87ceeb;fill-rule:evenodd"
     id="path10" />
  <path
     d="m 421.8234,556.7499 13.3914,24.7834 -17.0003,17.115 c 10.3155,3.0201 20.8469,5.2491 31.5014,6.6644 l 12.6683,-19.0089 c -6.0515,-7.3415 -11.3119,-15.3019 -15.6922,-23.7477 -8.3922,-1.4621 -16.6961,-3.4013 -24.8686,-5.8062 z"
     style="fill:#87ceeb;fill-rule:evenodd"
     id="path12" />
  <defs
     id="defs20">
    <linearGradient
       id="grad1">
      <stop
         offset="0%"
         stop-color="#9ef1f8"
         stop-opacity="1.0000"
         id="stop14" />
      <stop
         offset="100%"
         stop-color="#558fd5"
         stop-opacity="1.0000"
         id="stop16" />
    </linearGradient>
    <linearGradient
       xlink:href="#grad1"
       id="grad2"
       x1="0"
       y1="0"
       x2="0"
       y2="1"
       gradientUnits="objectBoundingBox" />
  </defs>
  <path
     d="M 645.799,604.496 H 483.6938 l -19.5946,-95.3781 h 198.4374 z"
     style="fill:url(#grad2)"
     id="path22" />
  <path
     d="M 666.8587,507.3802 H 459.5702 v 3.4738 h 207.2885 z"
     style="fill:#21324b;fill-rule:evenodd"
     id="path24" />
  <path
     d="M 666.8587,515.8026 H 459.5702 v 3.473 h 207.2885 z"
     style="fill:#21324b;fill-rule:evenodd"
     id="path26" />
  <path
     d="M 666.8587,524.2326 H 459.5702 v 3.4752 h 207.2885 z"
     style="fill:#21324b;fill-rule:evenodd"
     id="path28" />
  <path
     d="M 666.8587,532.6565 H 459.5702 v 3.473 h 207.2885 z"
     style="fill:#21324b;fill-rule:evenodd"
     id="path30" />
  <path
     d="M 666.8587,541.0887 H 459.5702 v 3.473 h 207.2885 z"
     style="fill:#21324b;fill-rule:evenodd"
     id="path32" />
  <path
     d="M 666.8587,549.5089 H 459.5702 v 3.4744 h 207.2885 z"
     style="fill:#21324b;fill-rule:evenodd"
     id="path34" />
  <path
     d="M 666.8587,557.9426 H 459.5702 v 3.473 h 207.2885 z"
     style="fill:#21324b;fill-rule:evenodd"
     id="path36" />
  <path
     d="M 654.4765,566.3642 H 471.96 v 3.4738 h 182.5165 z"
     style="fill:#21324b;fill-rule:evenodd"
     id="path38" />
  <path
     d="M 654.4765,574.7949 H 471.96 v 3.473 h 182.5165 z"
     style="fill:#21324b;fill-rule:evenodd"
     id="path40" />
  <path
     d="M 631.421,583.2166 H 495.0434 v 3.4729 H 631.421 Z"
     style="fill:#21324b;fill-rule:evenodd"
     id="path42" />
  <path
     d="M 631.421,591.6382 H 495.0434 v 3.4737 H 631.421 Z"
     style="fill:#21324b;fill-rule:evenodd"
     id="path44" />
  <defs
     id="defs56">
    <linearGradient
       id="grad3">
      <stop
         offset="0.0000%"
         stop-color="#21324b"
         stop-opacity="1.0000"
         id="stop46" />
      <stop
         offset="28.0000%"
         stop-color="#243650"
         stop-opacity="1.0000"
         id="stop48" />
      <stop
         offset="62.0000%"
         stop-color="#2e425f"
         stop-opacity="1.0000"
         id="stop50" />
      <stop
         offset="100.0000%"
         stop-color="#3d5578"
         stop-opacity="1.0000"
         id="stop52" />
    </linearGradient>
    <linearGradient
       xlink:href="#grad3"
       id="grad4"
       x1="0"
       y1="0"
       x2="0"
       y2="1"
       gradientTransform="rotate(175,0.5,0.5)"
       gradientUnits="objectBoundingBox" />
  </defs>
  <path
     d="m 581.6384,371.399 c 1.416,3.0292 2.0425,6.3663 1.8251,9.7026 -0.2158,3.3364 -1.2718,6.5633 -3.0676,9.3833 -1.7957,2.8201 -4.2723,5.1427 -7.2041,6.7505 -2.9295,1.61 -6.219,2.4524 -9.5622,2.4524 -3.3431,0 -6.6327,-0.8424 -9.5644,-2.4524 -2.9295,-1.6078 -5.4084,-3.9304 -7.2034,-6.7505 -1.7957,-2.82 -2.8502,-6.0469 -3.0676,-9.3833 -0.2182,-3.3363 0.4114,-6.6734 1.8252,-9.7026 -33.1092,4.563 -63.2518,21.5248 -84.338,47.4577 -21.0862,25.9307 -31.5414,58.9002 -29.2542,92.2449 2.2863,33.3439 17.1452,64.578 41.5745,87.3875 24.4271,22.8109 56.6055,35.4974 90.0279,35.4974 33.4224,0 65.5986,-12.6865 90.0279,-35.4974 24.4271,-22.8095 39.2882,-54.0436 41.5746,-87.3875 2.2871,-33.3447 -8.1703,-66.3142 -29.2542,-92.2449 C 644.8917,392.9238 614.749,375.962 581.6384,371.399 Z m -18.0148,227.9189 c -24.7003,-0.188 -48.405,-9.7645 -66.3051,-26.786 -17.8985,-17.0221 -28.6556,-40.2151 -30.0853,-64.8754 -1.4281,-24.6595 6.5746,-48.9409 22.3875,-67.9159 15.8137,-18.9764 38.2541,-31.2273 62.7672,-34.267 l 11.2357,-1.2878 11.2364,1.2878 c 24.5131,3.0397 46.9527,15.2906 62.7664,34.267 15.8137,18.975 23.8157,43.2564 22.3883,67.9159 -1.4304,24.6603 -12.1852,47.8533 -30.0853,64.8754 -17.9008,17.0215 -41.6047,26.598 -66.3058,26.786 z"
     style="fill:url(#grad4)"
     id="path58" />
  <defs
     id="defs70">
    <linearGradient
       id="grad5">
      <stop
         offset="0.0000%"
         stop-color="#21324b"
         stop-opacity="1.0000"
         id="stop60" />
      <stop
         offset="28.0000%"
         stop-color="#243650"
         stop-opacity="1.0000"
         id="stop62" />
      <stop
         offset="62.0000%"
         stop-color="#2e425f"
         stop-opacity="1.0000"
         id="stop64" />
      <stop
         offset="100.0000%"
         stop-color="#3d5578"
         stop-opacity="1.0000"
         id="stop66" />
    </linearGradient>
    <linearGradient
       xlink:href="#grad5"
       id="grad6"
       x1="0"
       y1="0"
       x2="0"
       y2="1"
       gradientTransform="rotate(173,0.5,0.5)"
       gradientUnits="objectBoundingBox" />
  </defs>
  <path
     d="m 438.4862,523.899 -0.7948,-4.5192 -8.5484,1.5059 -0.5231,-3.002 c -0.1555,-0.8809 -0.6552,-1.6636 -1.3882,-2.1769 -0.7307,-0.5133 -1.6372,-0.7148 -2.5181,-0.5593 -0.8831,0.1554 -1.6659,0.6551 -2.1792,1.3881 -0.511,0.7329 -0.7126,1.6395 -0.5571,2.5204 l 0.5231,2.9914 1.6003,9.0496 0.271,1.5799 0.2521,1.4115 c 0.1555,0.8809 0.6552,1.6637 1.3881,2.177 0.7307,0.5132 1.6372,0.7148 2.5204,0.5593 0.8809,-0.1555 1.6636,-0.6552 2.1769,-1.3882 0.5133,-0.7306 0.7126,-1.6379 0.5571,-2.5181 l -0.5231,-3.0042 8.5152,-1.5059 z"
     style="fill:url(#grad6)"
     id="path72" />
  <defs
     id="defs84">
    <linearGradient
       id="grad7">
      <stop
         offset="0.0000%"
         stop-color="#21324b"
         stop-opacity="1.0000"
         id="stop74" />
      <stop
         offset="28.0000%"
         stop-color="#243650"
         stop-opacity="1.0000"
         id="stop76" />
      <stop
         offset="62.0000%"
         stop-color="#2e425f"
         stop-opacity="1.0000"
         id="stop78" />
      <stop
         offset="100.0000%"
         stop-color="#3d5578"
         stop-opacity="1.0000"
         id="stop80" />
    </linearGradient>
    <linearGradient
       xlink:href="#grad7"
       id="grad8"
       x1="0"
       y1="0"
       x2="0"
       y2="1"
       gradientTransform="rotate(177,0.5,0.5)"
       gradientUnits="objectBoundingBox" />
  </defs>
  <path
     d="m 400.8338,521.5341 c -4.446,-0.8583 -9.0512,-0.2031 -13.0775,1.8637 -6.7904,3.6186 -6.4349,8.7356 -6.1835,10.1471 0,0.2401 0.0739,0.3782 0.0739,0.3782 0,0 0,0.1351 0.0521,0.3752 0.2499,1.4123 1.6637,6.3405 9.289,7.4177 4.4935,0.5706 9.0489,-0.388 12.931,-2.7204 5.5427,-3.1394 11.4583,-5.5699 17.6072,-7.2298 l -1.6735,-9.4142 c -6.3489,0.5246 -12.74,0.2513 -19.0187,-0.8175 z m -9.8241,4.4157 c -4.5615,1.9158 -6.5286,4.3743 -7.3234,6.2772 0,0 -0.3661,-5.5555 7.9506,-8.1801 0,0 5.8696,-1.9256 9.2807,0.0717 -3.3877,0.0144 -6.7429,0.6333 -9.9079,1.8312 z"
     style="fill:url(#grad8)"
     id="path86" />
  <defs
     id="defs98">
    <linearGradient
       id="grad9">
      <stop
         offset="0.0000%"
         stop-color="#21324b"
         stop-opacity="1.0000"
         id="stop88" />
      <stop
         offset="28.0000%"
         stop-color="#243650"
         stop-opacity="1.0000"
         id="stop90" />
      <stop
         offset="62.0000%"
         stop-color="#2e425f"
         stop-opacity="1.0000"
         id="stop92" />
      <stop
         offset="100.0000%"
         stop-color="#3d5578"
         stop-opacity="1.0000"
         id="stop94" />
    </linearGradient>
    <linearGradient
       xlink:href="#grad9"
       id="grad10"
       x1="0"
       y1="0"
       x2="0"
       y2="1"
       gradientTransform="rotate(175,0.5,0.5)"
       gradientUnits="objectBoundingBox" />
  </defs>
  <path
     d="m 449.9053,427.3584 c 0.2197,-0.3835 0.3639,-0.8069 0.422,-1.244 0.0573,-0.4393 0.0279,-0.8846 -0.0861,-1.3126 -0.1162,-0.4273 -0.3132,-0.8288 -0.5812,-1.1798 -0.2695,-0.3518 -0.6069,-0.6454 -0.9903,-0.8666 -0.382,-0.2219 -0.8054,-0.3638 -1.2448,-0.4219 -0.4393,-0.0574 -0.8846,-0.0295 -1.3118,0.086 -0.4273,0.114 -0.8289,0.3118 -1.1783,0.5813 -0.3518,0.2694 -0.6469,0.6053 -0.8666,0.9888 l -1.5179,2.6162 -4.6038,7.9703 -0.7948,1.3821 -0.7209,1.2439 c -0.3932,0.773 -0.4732,1.6659 -0.2279,2.4947 0.2476,0.8289 0.8031,1.5316 1.5542,1.9656 0.7488,0.431 1.6357,0.5586 2.4781,0.3571 0.8409,-0.2038 1.5723,-0.7209 2.0433,-1.4478 l 1.5157,-2.6366 7.5015,4.3319 2.2909,-3.9764 2.2925,-3.9644 -7.491,-4.3312 z"
     style="fill:url(#grad10)"
     id="path100" />
  <defs
     id="defs112">
    <linearGradient
       id="grad11">
      <stop
         offset="0.0000%"
         stop-color="#21324b"
         stop-opacity="1.0000"
         id="stop102" />
      <stop
         offset="28.0000%"
         stop-color="#243650"
         stop-opacity="1.0000"
         id="stop104" />
      <stop
         offset="62.0000%"
         stop-color="#2e425f"
         stop-opacity="1.0000"
         id="stop106" />
      <stop
         offset="100.0000%"
         stop-color="#3d5578"
         stop-opacity="1.0000"
         id="stop108" />
    </linearGradient>
    <linearGradient
       xlink:href="#grad11"
       id="grad12"
       x1="0"
       y1="0"
       x2="0"
       y2="1"
       gradientTransform="rotate(176,0.5,0.5)"
       gradientUnits="objectBoundingBox" />
  </defs>
  <path
     d="m 417.4016,427.6399 c 6.2673,1.1549 12.3611,3.0956 18.1408,5.776 l 4.7932,-8.3703 c -5.2129,-3.6647 -9.9404,-7.9748 -14.0723,-12.8253 -2.8578,-3.4934 -6.8086,-5.9255 -11.2138,-6.9045 -7.5332,-1.6017 -10.5472,2.5521 -11.2583,3.787 -0.0657,0.1117 -0.1238,0.2272 -0.1774,0.345 0,0 -0.0838,0.1162 -0.2098,0.3238 -0.7209,1.2462 -2.8042,5.9216 2.3445,11.6455 3.0774,3.3213 7.1814,5.5141 11.6531,6.2228 z m 0.2,-19.3742 c 0,0 5.7322,2.2909 7.0622,6.0152 -2.6064,-2.1527 -5.5759,-3.8262 -8.7674,-4.9365 -4.7199,-1.4538 -7.8049,-0.8372 -9.6467,0.0717 0,0 3.2956,-4.4875 11.3942,-1.1504 z"
     style="fill:url(#grad12)"
     id="path114" />
  <defs
     id="defs126">
    <linearGradient
       id="grad13">
      <stop
         offset="0.0000%"
         stop-color="#21324b"
         stop-opacity="1.0000"
         id="stop116" />
      <stop
         offset="28.0000%"
         stop-color="#243650"
         stop-opacity="1.0000"
         id="stop118" />
      <stop
         offset="62.0000%"
         stop-color="#2e425f"
         stop-opacity="1.0000"
         id="stop120" />
      <stop
         offset="100.0000%"
         stop-color="#3d5578"
         stop-opacity="1.0000"
         id="stop122" />
    </linearGradient>
    <linearGradient
       xlink:href="#grad13"
       id="grad14"
       x1="0"
       y1="0"
       x2="0"
       y2="1"
       gradientTransform="rotate(176,0.5,0.5)"
       gradientUnits="objectBoundingBox" />
  </defs>
  <path
     d="m 522.0769,365.3423 -2.8457,1.0462 -8.6518,3.1385 -1.4961,0.5541 -1.3481,0.4816 c -0.7949,0.3396 -1.4297,0.9714 -1.7731,1.764 -0.3435,0.7933 -0.3699,1.6886 -0.074,2.5 0.2974,0.8122 0.8922,1.4802 1.6651,1.8659 0.7753,0.3858 1.666,0.4612 2.4925,0.2099 l 2.8563,-1.0462 2.9619,8.1288 4.3094,-1.5693 4.31,-1.5693 -2.9596,-8.1288 2.8562,-1.0462 c 0.465,-0.1079 0.9005,-0.3132 1.2817,-0.6023 0.3797,-0.2899 0.693,-0.6567 0.9209,-1.0764 0.2257,-0.4205 0.3616,-0.8839 0.3971,-1.3602 0.0339,-0.4763 -0.034,-0.9541 -0.1978,-1.4025 -0.163,-0.4484 -0.4227,-0.8567 -0.7563,-1.1979 -0.3337,-0.3412 -0.7375,-0.6077 -1.1829,-0.7805 -0.443,-0.1736 -0.9201,-0.2506 -1.3979,-0.2265 -0.4771,0.0249 -0.9428,0.151 -1.3678,0.3691 z"
     style="fill:url(#grad14)"
     id="path128" />
  <defs
     id="defs140">
    <linearGradient
       id="grad15">
      <stop
         offset="0.0000%"
         stop-color="#21324b"
         stop-opacity="1.0000"
         id="stop130" />
      <stop
         offset="28.0000%"
         stop-color="#243650"
         stop-opacity="1.0000"
         id="stop132" />
      <stop
         offset="62.0000%"
         stop-color="#2e425f"
         stop-opacity="1.0000"
         id="stop134" />
      <stop
         offset="100.0000%"
         stop-color="#3d5578"
         stop-opacity="1.0000"
         id="stop136" />
    </linearGradient>
    <linearGradient
       xlink:href="#grad15"
       id="grad16"
       x1="0"
       y1="0"
       x2="0"
       y2="1"
       gradientTransform="rotate(171,0.5,0.5)"
       gradientUnits="objectBoundingBox" />
  </defs>
  <path
     d="m 518.4923,363.7941 c -1.6297,-6.1466 -2.4804,-12.4728 -2.5325,-18.8315 0.074,-4.5267 -1.3746,-8.9485 -4.1123,-12.5536 -4.7494,-6.0681 -9.7185,-4.8234 -11.0681,-4.3312 -0.1223,0.0423 -0.24,0.0913 -0.3555,0.1464 -0.1238,0.0317 -0.2461,0.0702 -0.3654,0.1148 -1.3504,0.4921 -5.9541,2.7309 -5.6921,10.4619 0.2196,4.5245 1.955,8.8436 4.9267,12.2607 4.0565,4.9117 7.4759,10.314 10.1797,16.0802 z m -16.0296,-33.9168 c 0,0 5.4106,-1.3285 9.4165,6.4025 0,0 2.9182,5.4506 1.5383,9.1538 -0.6091,-3.3235 -1.8055,-6.5127 -3.5371,-9.4158 -2.6563,-4.153 -5.4182,-5.6597 -7.4177,-6.1405 z"
     style="fill:url(#grad16)"
     id="path142" />
  <defs
     id="defs154">
    <linearGradient
       id="grad17">
      <stop
         offset="0.0000%"
         stop-color="#21324b"
         stop-opacity="1.0000"
         id="stop144" />
      <stop
         offset="28.0000%"
         stop-color="#243650"
         stop-opacity="1.0000"
         id="stop146" />
      <stop
         offset="62.0000%"
         stop-color="#2e425f"
         stop-opacity="1.0000"
         id="stop148" />
      <stop
         offset="100.0000%"
         stop-color="#3d5578"
         stop-opacity="1.0000"
         id="stop150" />
    </linearGradient>
    <linearGradient
       xlink:href="#grad17"
       id="grad18"
       x1="0"
       y1="0"
       x2="0"
       y2="1"
       gradientTransform="rotate(175,0.5,0.5)"
       gradientUnits="objectBoundingBox" />
  </defs>
  <path
     d="m 619.5399,370.5521 -2.8555,-1.0462 -8.6421,-3.1386 -1.496,-0.5442 -1.3497,-0.4914 c -0.8008,-0.1902 -1.644,-0.0808 -2.3709,0.3087 -0.7246,0.3895 -1.284,1.0311 -1.5693,1.8041 -0.2838,0.7729 -0.2755,1.6236 0.0234,2.3913 0.3019,0.7669 0.8711,1.3979 1.6063,1.7731 l 2.8653,1.0462 -2.9491,8.1914 4.3093,1.5693 4.3101,1.5693 2.962,-8.1288 2.8555,1.0462 c 0.8273,0.2513 1.718,0.1759 2.4909,-0.2099 0.7745,-0.3857 1.3701,-1.0537 1.6652,-1.8651 0.2974,-0.8122 0.2717,-1.7075 -0.0717,-2.5 -0.3435,-0.7934 -0.9783,-1.4252 -1.7739,-1.7648 z"
     style="fill:url(#grad18)"
     id="path156" />
  <defs
     id="defs168">
    <linearGradient
       id="grad19">
      <stop
         offset="0.0000%"
         stop-color="#21324b"
         stop-opacity="1.0000"
         id="stop158" />
      <stop
         offset="28.0000%"
         stop-color="#243650"
         stop-opacity="1.0000"
         id="stop160" />
      <stop
         offset="62.0000%"
         stop-color="#2e425f"
         stop-opacity="1.0000"
         id="stop162" />
      <stop
         offset="100.0000%"
         stop-color="#3d5578"
         stop-opacity="1.0000"
         id="stop164" />
    </linearGradient>
    <linearGradient
       xlink:href="#grad19"
       id="grad20"
       x1="0"
       y1="0"
       x2="0"
       y2="1"
       gradientTransform="rotate(171,0.5,0.5)"
       gradientUnits="objectBoundingBox" />
  </defs>
  <path
     d="m 627.1992,328.3072 c -0.12,-0.0445 -0.2438,-0.083 -0.3676,-0.1147 -0.1155,-0.0551 -0.2333,-0.1042 -0.3555,-0.1464 -1.3497,-0.4922 -6.3285,-1.7369 -11.0681,4.3312 -2.7378,3.6058 -4.1863,8.0269 -4.1123,12.5536 -0.0521,6.3587 -0.9028,12.6849 -2.5302,18.8315 l 9.0172,3.285 c 2.7038,-5.7699 6.1232,-11.176 10.1796,-16.0899 2.9673,-3.4164 4.6988,-7.731 4.917,-12.2509 0.2612,-7.6684 -4.332,-9.9072 -5.6801,-10.3994 z m 3.2118,13.4541 c 0,0 -1.2568,6.047 -4.6973,8.0028 1.6674,-2.9386 2.7974,-6.1519 3.3371,-9.4883 0.6167,-4.9064 -0.5239,-7.8359 -1.7474,-9.4889 0,0 4.9909,2.469 3.1076,10.9744 z"
     style="fill:url(#grad20)"
     id="path170" />
  <defs
     id="defs182">
    <linearGradient
       id="grad21">
      <stop
         offset="0.0000%"
         stop-color="#21324b"
         stop-opacity="1.0000"
         id="stop172" />
      <stop
         offset="28.0000%"
         stop-color="#243650"
         stop-opacity="1.0000"
         id="stop174" />
      <stop
         offset="62.0000%"
         stop-color="#2e425f"
         stop-opacity="1.0000"
         id="stop176" />
      <stop
         offset="100.0000%"
         stop-color="#3d5578"
         stop-opacity="1.0000"
         id="stop178" />
    </linearGradient>
    <linearGradient
       xlink:href="#grad21"
       id="grad22"
       x1="0"
       y1="0"
       x2="0"
       y2="1"
       gradientTransform="rotate(175,0.5,0.5)"
       gradientUnits="objectBoundingBox" />
  </defs>
  <path
     d="m 690.8269,437.2044 -1.518,-2.5944 -4.5916,-7.9725 -0.7949,-1.3798 -0.7231,-1.2364 c -0.2196,-0.3835 -0.5148,-0.7194 -0.8665,-0.9888 -0.3518,-0.2695 -0.7511,-0.4673 -1.1783,-0.5813 -0.4273,-0.1132 -0.8726,-0.1434 -1.3119,-0.0853 -0.4401,0.0574 -0.8628,0.2016 -1.2462,0.4212 -0.3835,0.222 -0.7194,0.5171 -0.9889,0.8666 -0.2694,0.3517 -0.4672,0.7533 -0.5812,1.1805 -0.114,0.4273 -0.1442,0.8726 -0.086,1.3119 0.0581,0.4378 0.2015,0.8605 0.4212,1.244 l 1.5179,2.6366 -7.4909,4.332 2.2901,3.9644 2.2932,3.9643 7.4894,-4.3199 1.5278,2.6359 c 0.2219,0.3835 0.5148,0.7194 0.8666,0.9888 0.3517,0.2695 0.751,0.4673 1.1783,0.5835 0.4272,0.1132 0.8748,0.1434 1.3119,0.0853 0.44,-0.0574 0.8627,-0.2015 1.2462,-0.4235 0.3834,-0.2211 0.7193,-0.5147 0.9888,-0.8665 0.2695,-0.3517 0.4672,-0.7511 0.5812,-1.1783 0.1163,-0.4272 0.1442,-0.8726 0.0861,-1.3119 -0.0559,-0.4393 -0.2001,-0.8628 -0.4212,-1.2462 z"
     style="fill:url(#grad22)"
     id="path184" />
  <defs
     id="defs196">
    <linearGradient
       id="grad23">
      <stop
         offset="0.0000%"
         stop-color="#21324b"
         stop-opacity="1.0000"
         id="stop186" />
      <stop
         offset="28.0000%"
         stop-color="#243650"
         stop-opacity="1.0000"
         id="stop188" />
      <stop
         offset="62.0000%"
         stop-color="#2e425f"
         stop-opacity="1.0000"
         id="stop190" />
      <stop
         offset="100.0000%"
         stop-color="#3d5578"
         stop-opacity="1.0000"
         id="stop192" />
    </linearGradient>
    <linearGradient
       xlink:href="#grad23"
       id="grad24"
       x1="0"
       y1="0"
       x2="0"
       y2="1"
       gradientTransform="rotate(176,0.5,0.5)"
       gradientUnits="objectBoundingBox" />
  </defs>
  <path
     d="m 709.8592,427.6422 c 4.4799,-0.7269 8.5839,-2.9378 11.6553,-6.2772 5.1472,-5.7238 3.0541,-10.3993 2.343,-11.6432 -0.126,-0.2099 -0.2098,-0.3254 -0.2098,-0.3254 -0.0521,-0.1185 -0.1117,-0.234 -0.1774,-0.3457 -0.7111,-1.2341 -3.7251,-5.3864 -11.2561,-3.787 -4.418,0.9987 -8.3718,3.4511 -11.2258,6.9686 -4.1267,4.8551 -8.8557,9.1644 -14.07,12.8254 l 4.8007,8.3703 c 5.7797,-2.6842 11.875,-4.6294 18.1401,-5.7858 z m 7.731,-7.5113 c 3.6209,-3.359 4.6256,-6.3512 4.7493,-8.3703 0,0 2.2389,5.0951 -4.6648,10.3993 0,0 -4.8536,3.8187 -8.7462,3.1378 3.1718,-1.1949 6.1035,-2.9438 8.6617,-5.1668 z"
     style="fill:url(#grad24)"
     id="path198" />
  <defs
     id="defs210">
    <linearGradient
       id="grad25">
      <stop
         offset="0.0000%"
         stop-color="#21324b"
         stop-opacity="1.0000"
         id="stop200" />
      <stop
         offset="28.0000%"
         stop-color="#243650"
         stop-opacity="1.0000"
         id="stop202" />
      <stop
         offset="62.0000%"
         stop-color="#2e425f"
         stop-opacity="1.0000"
         id="stop204" />
      <stop
         offset="100.0000%"
         stop-color="#3d5578"
         stop-opacity="1.0000"
         id="stop206" />
    </linearGradient>
    <linearGradient
       xlink:href="#grad25"
       id="grad26"
       x1="0"
       y1="0"
       x2="0"
       y2="1"
       gradientTransform="rotate(173,0.5,0.5)"
       gradientUnits="objectBoundingBox" />
  </defs>
  <path
     d="m 702.5479,515.1633 c -0.4355,-0.0777 -0.8824,-0.0694 -1.3164,0.0264 -0.4333,0.0936 -0.8424,0.2733 -1.2063,0.5269 -0.363,0.2536 -0.6725,0.5774 -0.9125,0.9511 -0.2378,0.3729 -0.3994,0.7903 -0.4771,1.2258 l -0.5337,3.0035 -8.5152,-1.5497 -0.7948,4.52 -0.7956,4.5093 8.516,1.5059 -0.5231,3.0035 c -0.1555,0.8809 0.046,1.7874 0.557,2.5204 0.5133,0.7329 1.2961,1.2303 2.1792,1.3866 0.8809,0.1555 1.7875,-0.0461 2.5181,-0.5578 0.733,-0.5133 1.2327,-1.2961 1.3882,-2.1785 l 0.5231,-2.9921 1.6002,-9.0489 0.2733,-1.5799 0.2498,-1.4115 c 0.1434,-0.8734 -0.0619,-1.7678 -0.5729,-2.491 -0.5118,-0.7208 -1.2862,-1.2137 -2.1573,-1.37 z"
     style="fill:url(#grad26)"
     id="path212" />
  <defs
     id="defs224">
    <linearGradient
       id="grad27">
      <stop
         offset="0.0000%"
         stop-color="#21324b"
         stop-opacity="1.0000"
         id="stop214" />
      <stop
         offset="28.0000%"
         stop-color="#243650"
         stop-opacity="1.0000"
         id="stop216" />
      <stop
         offset="62.0000%"
         stop-color="#2e425f"
         stop-opacity="1.0000"
         id="stop218" />
      <stop
         offset="100.0000%"
         stop-color="#3d5578"
         stop-opacity="1.0000"
         id="stop220" />
    </linearGradient>
    <linearGradient
       xlink:href="#grad27"
       id="grad28"
       x1="0"
       y1="0"
       x2="0"
       y2="1"
       gradientTransform="rotate(177,0.5,0.5)"
       gradientUnits="objectBoundingBox" />
  </defs>
  <path
     d="m 739.5195,523.3978 c -4.0285,-2.0668 -8.6338,-2.722 -13.0774,-1.8637 -6.2833,1.053 -12.6721,1.3141 -19.021,0.7752 l -1.6735,9.4142 c 6.1511,1.6659 12.0667,4.0965 17.6064,7.2404 3.8829,2.3347 8.4383,3.291 12.9318,2.7196 7.6276,-1.0462 9.0391,-6.0054 9.2791,-7.4169 0.0295,-0.1238 0.0476,-0.2499 0.0514,-0.3759 0.0362,-0.1238 0.0641,-0.2499 0.0845,-0.3775 0.2514,-1.3798 0.6069,-6.4968 -6.1813,-10.1154 z m -6.6448,16.4024 c 0,0 -6.1715,-0.1872 -8.6934,-3.2314 3.1869,1.1209 6.5505,1.6659 9.9276,1.61 4.929,-0.2498 7.617,-1.8833 9.0391,-3.3673 0,0.0302 -1.5693,5.3661 -10.2733,4.9887 z"
     style="fill:url(#grad28)"
     id="path226" />
  <path
     d="m 680.2653,612.6663 -20.9239,-31.447 c -0.1955,-0.2936 -0.4514,-0.5427 -0.7488,-0.733 -0.2974,-0.1894 -0.631,-0.3155 -0.9805,-0.3713 -0.348,-0.0536 -0.705,-0.0363 -1.047,0.0521 -0.3412,0.0898 -0.6605,0.2475 -0.9367,0.4672 -13.0095,10.3034 -27.5446,18.5152 -43.082,24.3433 -27.9302,10.0015 -58.2495,11.2243 -86.8946,3.5047 -15.3042,-4.3297 -29.8233,-11.0598 -43.0185,-19.9396 -3.7447,-2.4902 -7.3974,-5.1261 -10.9549,-7.9084 -0.2755,-0.2197 -0.5948,-0.3774 -0.9367,-0.4672 -0.3412,-0.0884 -0.699,-0.1057 -1.0462,-0.0521 -0.3495,0.0558 -0.6831,0.1819 -0.9806,0.3713 -0.2974,0.1903 -0.5532,0.4394 -0.7487,0.733 l -20.9247,31.447 c -0.345,0.5133 -0.4914,1.1368 -0.4129,1.7497 0.0793,0.6152 0.3789,1.1783 0.8424,1.5881 8.5998,7.5952 50.3842,41.2614 116.2084,42.0879 65.8364,-0.8265 107.6193,-34.5229 116.219,-42.0879 0.4552,-0.4174 0.7428,-0.9865 0.8085,-1.6002 0.0679,-0.6129 -0.0899,-1.2296 -0.4416,-1.7376 z"
     style="fill:#87ceeb;fill-rule:evenodd"
     id="path228" />
  <defs
     id="defs240">
    <linearGradient
       id="grad29">
      <stop
         offset="0.0000%"
         stop-color="#21324b"
         stop-opacity="1.0000"
         id="stop230" />
      <stop
         offset="28.0000%"
         stop-color="#243650"
         stop-opacity="1.0000"
         id="stop232" />
      <stop
         offset="62.0000%"
         stop-color="#2e425f"
         stop-opacity="1.0000"
         id="stop234" />
      <stop
         offset="100.0000%"
         stop-color="#3d5578"
         stop-opacity="1.0000"
         id="stop236" />
    </linearGradient>
    <linearGradient
       xlink:href="#grad29"
       id="grad30"
       x1="0"
       y1="0"
       x2="0"
       y2="1"
       gradientTransform="rotate(163,0.5,0.5)"
       gradientUnits="objectBoundingBox" />
  </defs>
  <path
     d="m 646.3379,474.573 c 0,0 -7.7627,26.9181 -23.9062,38.3319 2.6064,1.6274 5.0573,3.491 7.3241,5.5661 0,0 -11.8637,17.9921 -29.2927,22.2199 -17.4291,4.2263 -25.3495,-5.6499 -27.1173,-16.844 l -1.6319,-81.915 h 3.8805 c 0.5994,0 1.1746,-0.2378 1.598,-0.6612 0.4257,-0.4235 0.6628,-0.9987 0.6628,-1.598 v -1.9248 c 0.006,-0.302 -0.0499,-0.5994 -0.1593,-0.8786 -0.1117,-0.2778 -0.2778,-0.5337 -0.4876,-0.7473 -0.2099,-0.2136 -0.4612,-0.3835 -0.739,-0.5012 -0.2755,-0.1155 -0.5729,-0.1759 -0.8749,-0.1759 h -4.0262 l -0.0959,-4.4656 v -1.13 l 29.7539,-4.3938 c 0.0219,1.2998 0.5571,2.54 1.4916,3.445 0.9367,0.9066 2.1935,1.404 3.4933,1.3821 1.3021,-0.0204 2.5423,-0.5578 3.4473,-1.4923 0.9043,-0.9345 1.4018,-2.1905 1.3821,-3.4926 v -11.2983 c -0.006,-1.17 -0.428,-2.2985 -1.1926,-3.1831 -0.7631,-0.887 -1.8176,-1.4704 -2.974,-1.6478 -1.1564,-0.1759 -2.3362,0.0656 -3.3288,0.6831 -0.9949,0.6167 -1.7339,1.5678 -2.0894,2.6819 h -29.9713 v -11.2658 c 5.0407,-1.8433 9.2731,-5.4046 11.9535,-10.0574 2.6781,-4.652 3.6345,-10.0996 2.6977,-15.3857 -0.9367,-5.2868 -3.7047,-10.0747 -7.8185,-13.5243 -4.1123,-3.4496 -9.3108,-5.3404 -14.6792,-5.3404 -5.3683,0 -10.5669,1.8908 -14.6814,5.3404 -4.1139,3.4496 -6.8818,8.2375 -7.8171,13.5243 -0.9367,5.2861 0.0182,10.7337 2.6986,15.3857 2.6781,4.6528 6.9097,8.2141 11.9527,10.0574 v 11.2658 h -29.9932 c -0.3472,-1.1186 -1.0847,-2.0773 -2.0788,-2.7 -0.9949,-0.6212 -2.1792,-0.8666 -3.3371,-0.6892 -1.1609,0.1782 -2.2169,0.7654 -2.9801,1.6561 -0.7631,0.8907 -1.1805,2.0267 -1.176,3.199 v 11.2983 c 0.034,1.2636 0.5548,2.466 1.4538,3.3552 0.9005,0.8885 2.1067,1.3957 3.3711,1.4176 1.2658,0.0204 2.4887,-0.4491 3.4148,-1.3081 0.9292,-0.8605 1.4878,-2.0449 1.5618,-3.3069 l 29.732,4.3938 v 1.13 l -0.04,4.4656 h -4.0799 c -0.6016,0 -1.1745,0.24 -1.5979,0.6635 -0.4258,0.4227 -0.6635,0.9979 -0.6635,1.5972 v 1.9671 c 0,0.5993 0.2377,1.1745 0.6635,1.598 0.4234,0.4234 0.9963,0.6612 1.5979,0.6612 h 3.8904 l -1.6319,81.915 c -1.7678,11.1941 -9.7305,21.0703 -27.1173,16.844 -17.3875,-4.2278 -29.2927,-22.2199 -29.2927,-22.2199 2.2667,-2.0751 4.7177,-3.9387 7.3241,-5.5661 -16.1436,-11.4138 -23.9062,-38.3319 -23.9062,-38.3319 -13.5983,32.0328 1.5179,57.6744 1.5179,57.6744 1.7573,-2.6585 3.9501,-5.003 6.487,-6.9362 3.1371,6.4863 10.3148,23.7281 40.6741,39.0542 30.3608,15.3261 34.0315,30.8001 34.0315,30.8001 0,0 3.6942,-15.474 34.0429,-30.8001 30.3495,-15.3261 37.5687,-32.5679 40.7065,-39.0542 2.5362,1.9332 4.729,4.2777 6.487,6.9362 0,0 15.0445,-25.6416 1.4855,-57.6744 z m -95.3902,-94.7312 c 0,-2.5083 0.7428,-4.96 2.1369,-7.0456 1.3942,-2.0856 3.3756,-3.7107 5.6922,-4.6694 2.3188,-0.9601 4.8687,-1.21 7.3271,-0.7201 2.4608,0.4899 4.7193,1.6984 6.4931,3.473 1.7731,1.7746 2.9801,4.0346 3.4669,6.4946 0.4892,2.4607 0.2355,5.0105 -0.7246,7.3271 -0.9632,2.3166 -2.5883,4.2957 -4.6754,5.6876 -2.0871,1.392 -4.5396,2.1355 -7.0479,2.1332 -1.6636,0 -3.3114,-0.3299 -4.849,-0.9669 -1.5383,-0.6371 -2.9363,-1.5716 -4.1123,-2.7476 -1.1768,-1.1783 -2.109,-2.5763 -2.7461,-4.1146 -0.6356,-1.5383 -0.9632,-3.1869 -0.9609,-4.8513 z"
     style="fill:url(#grad30)"
     id="path242" />
  <path
     d="m 648.6288,473.6084 c -0.1902,-0.4469 -0.5072,-0.8288 -0.9126,-1.096 -0.4053,-0.268 -0.8831,-0.4114 -1.3685,-0.4099 h -0.1457 c -0.511,0.0324 -0.9986,0.2219 -1.3979,0.5412 -0.3993,0.32 -0.6892,0.7571 -0.8311,1.2485 -0.0739,0.2619 -7.7204,26.2266 -23.0148,36.9814 -0.3313,0.2378 -0.6016,0.551 -0.7827,0.9164 -0.1842,0.3661 -0.274,0.7691 -0.2642,1.1767 0.0143,0.4114 0.1344,0.813 0.3434,1.1685 0.2099,0.3533 0.5058,0.6492 0.859,0.8605 1.8237,1.1602 3.5711,2.4344 5.231,3.8187 -3.3997,4.4777 -13.4012,16.2689 -26.5089,19.4482 -2.3301,0.5911 -4.7207,0.9043 -7.1256,0.9307 -12.9197,0 -16.1413,-10.7744 -16.9376,-15.5978 l -1.5799,-79.2051 h 1.4138 c 1.2561,0 2.463,-0.4997 3.3515,-1.3881 0.8884,-0.8885 1.3881,-2.0955 1.3881,-3.3515 v -1.9029 c -0.005,-1.2561 -0.5035,-2.4585 -1.3919,-3.3454 -0.8892,-0.887 -2.0932,-1.3844 -3.3477,-1.3844 h -1.6116 v -0.9941 l 25.3895,-3.7447 c 0.5677,1.324 1.5104,2.4524 2.7144,3.2435 1.2047,0.7903 2.6147,1.21 4.0542,1.2024 1.9595,-0.002 3.8368,-0.7812 5.2204,-2.1671 1.3844,-1.3843 2.1634,-3.2616 2.1671,-5.2189 v -11.3398 c 0.0378,-1.6176 -0.4589,-3.199 -1.4138,-4.5033 -0.9548,-1.3044 -2.315,-2.257 -3.8685,-2.7061 -1.5519,-0.4499 -3.2095,-0.3736 -4.7154,0.2151 -1.5036,0.5918 -2.7717,1.6637 -3.6028,3.0503 h -25.9768 v -7.1264 c 5.2922,-2.3641 9.6143,-6.4741 12.2404,-11.6432 2.626,-5.1683 3.399,-11.0809 2.189,-16.7512 -1.2085,-5.6695 -4.3282,-10.7526 -8.8353,-14.3992 -4.5056,-3.6466 -10.1276,-5.6363 -15.9254,-5.6363 -5.7956,0 -11.4176,1.9897 -15.9254,5.6363 -4.5056,3.6466 -7.6253,8.7297 -8.8338,14.3992 -1.21,5.6703 -0.4371,11.5829 2.189,16.7512 2.626,5.1691 6.9459,9.2791 12.2411,11.6432 v 7.1264 h -25.9352 c -0.8334,-1.3866 -2.0992,-2.4585 -3.6051,-3.0503 -1.5036,-0.5887 -3.1613,-0.665 -4.7154,-0.2151 -1.552,0.4491 -2.9114,1.4017 -3.8663,2.7061 -0.9571,1.3043 -1.4523,2.8857 -1.4138,4.5033 v 11.2983 c -0.002,1.6991 0.5827,3.3469 1.6531,4.6671 1.0726,1.318 2.5664,2.2268 4.2323,2.5725 1.6637,0.3457 3.3953,0.1057 4.9049,-0.6771 1.5082,-0.7828 2.7,-2.063 3.3749,-3.6232 l 25.3585,3.7447 v 0.9949 h -1.6418 c -1.256,0 -2.4584,0.4974 -3.3476,1.3836 -0.8885,0.8869 -1.3897,2.0894 -1.3919,3.3454 v 1.9656 c 0,1.2583 0.4997,2.4622 1.3881,3.3507 0.8884,0.8892 2.0954,1.3881 3.3514,1.3881 h 1.3701 l -1.5799,79.2051 c -0.7948,4.8234 -4.0285,15.6001 -16.9376,15.6001 -2.4027,-0.0279 -4.7955,-0.3396 -7.1241,-0.9307 -13.1514,-3.1914 -23.1213,-14.9705 -26.5104,-19.4384 1.6561,-1.3919 3.4035,-2.6721 5.2309,-3.8285 0.3608,-0.2113 0.6605,-0.511 0.8764,-0.8688 0.2136,-0.3593 0.3336,-0.7669 0.3472,-1.1843 0.0144,-0.4174 -0.0755,-0.8311 -0.2649,-1.204 -0.188,-0.3736 -0.468,-0.6929 -0.8115,-0.9292 -15.2317,-10.754 -22.8812,-36.7195 -22.9529,-36.9806 -0.1419,-0.4914 -0.4317,-0.9292 -0.831,-1.2485 -0.3993,-0.3193 -0.887,-0.5095 -1.398,-0.5412 h -0.1457 c -0.4876,-0.002 -0.9624,0.1419 -1.3677,0.4091 -0.4061,0.268 -0.7231,0.6491 -0.9134,1.0968 -13.882,32.7989 1.047,58.796 1.6637,59.8844 0.2136,0.3654 0.5193,0.6688 0.8846,0.8847 0.3677,0.2136 0.7836,0.3299 1.207,0.3374 h 0.0838 c 0.3993,0.005 0.7948,-0.0898 1.1481,-0.271 0.3555,-0.1819 0.6612,-0.4476 0.893,-0.7729 1.0643,-1.558 2.2728,-3.0118 3.6088,-4.3418 3.9961,8.1182 13.0775,23.4745 40.3925,37.263 28.6428,14.5206 32.6713,29.0625 32.7129,29.1681 0.1358,0.5329 0.4438,1.0062 0.8771,1.3459 0.4355,0.3397 0.9684,0.5254 1.5195,0.5276 0.5532,-0.005 1.0884,-0.1917 1.524,-0.5352 0.4332,-0.3434 0.7412,-0.8212 0.871,-1.3602 0,-0.1238 4.0603,-14.6452 32.7453,-29.1666 27.337,-13.7047 36.4697,-29.1048 40.4144,-37.223 1.3361,1.3323 2.5446,2.7861 3.6089,4.3418 0.2294,0.3253 0.5351,0.591 0.8907,0.7752 0.3555,0.1812 0.751,0.2755 1.1481,0.271 h 0.0845 c 0.4174,-0.0136 0.8228,-0.1336 1.1798,-0.3472 0.3555,-0.2136 0.6529,-0.5156 0.8613,-0.8764 0.6484,-1.0666 15.5555,-27.0659 1.6734,-59.8633 z m -3.799,58.5869 c -1.7573,-2.66 -3.9478,-5.0053 -6.4848,-6.9361 -3.1393,6.487 -10.3147,23.7258 -40.6755,39.0526 -30.3593,15.3276 -34.0421,30.8001 -34.0421,30.8001 0,0 -3.7146,-15.4204 -34.0535,-30.7782 -30.3381,-15.3585 -37.5566,-32.5362 -40.6536,-39.0225 -2.5363,1.9309 -4.7298,4.2754 -6.4871,6.9362 0,0 -15.0747,-25.6416 -1.5157,-57.6759 0,0 7.7627,26.9173 23.904,38.3311 -2.6042,1.6297 -5.0566,3.4933 -7.3234,5.5661 0,0 11.8652,17.9944 29.2943,22.2207 2.5181,0.6529 5.1064,1.0039 7.7091,1.0462 12.0946,0 17.9219,-8.4518 19.4059,-17.8366 l 1.6334,-81.915 h -3.8919 c -0.5993,0 -1.1745,-0.2378 -1.5979,-0.6612 -0.4235,-0.4258 -0.6628,-0.9987 -0.6628,-1.598 v -1.9769 c 0,-0.6016 0.2393,-1.1745 0.6628,-1.6003 0.4234,-0.4227 0.9986,-0.6604 1.5979,-0.6604 h 4.0799 l 0.0944,-4.4679 v -1.1285 l -29.7321,-4.3953 c -0.0762,1.262 -0.6348,2.4479 -1.5617,3.3069 -0.9269,0.8605 -2.1513,1.3285 -3.4149,1.3081 -1.2643,-0.0196 -2.4728,-0.5269 -3.3718,-1.4161 -0.8982,-0.8884 -1.4198,-2.0908 -1.4553,-3.3552 v -11.3398 c -0.002,-1.1745 0.4151,-2.3083 1.1783,-3.199 0.7609,-0.8907 1.8191,-1.4779 2.9778,-1.6561 1.1602,-0.1774 2.3445,0.068 3.3371,0.6892 0.9941,0.6227 1.7331,1.5798 2.0788,2.7 h 29.8694 v -11.2658 c -5.043,-1.8456 -9.2746,-5.4046 -11.9527,-10.0574 -2.6804,-4.652 -3.6353,-10.1004 -2.7001,-15.3865 0.9368,-5.2868 3.7047,-10.0747 7.8186,-13.5243 4.1145,-3.4495 9.3108,-5.3396 14.6814,-5.3396 5.3684,0 10.5646,1.8901 14.6792,5.3396 4.1138,3.4496 6.8818,8.2375 7.8185,13.5243 0.9345,5.2861 -0.0196,10.7345 -2.6985,15.3865 -2.6796,4.6528 -6.912,8.2118 -11.9542,10.0574 v 11.2658 h 29.9826 c 0.354,-1.1141 1.0945,-2.0652 2.0871,-2.6819 0.9949,-0.6175 2.1754,-0.859 3.3318,-0.6831 1.1564,0.1774 2.2109,0.7608 2.9733,1.6455 0.7654,0.8869 1.1866,2.0154 1.1926,3.1854 v 11.2983 c 0.01,0.6446 -0.1079,1.284 -0.3434,1.8833 -0.2378,0.5986 -0.591,1.1458 -1.0387,1.6093 -0.4491,0.4612 -0.985,0.8333 -1.576,1.0885 -0.5911,0.2559 -1.2259,0.3932 -1.8713,0.4038 -0.6446,0.01 -1.2839,-0.1064 -1.8833,-0.3434 -0.5993,-0.2378 -1.1466,-0.5896 -1.6093,-1.0387 -0.4619,-0.4476 -0.8333,-0.9828 -1.0884,-1.5738 -0.2559,-0.591 -0.3941,-1.2281 -0.4039,-1.8712 l -29.7531,4.3938 v 1.1277 l 0.0936,4.4679 h 4.0919 c 0.5993,0 1.1723,0.2378 1.598,0.6612 0.4234,0.425 0.6612,0.9987 0.6612,1.5995 v 1.9656 c 0,0.5986 -0.2378,1.1737 -0.6612,1.5972 -0.4257,0.4257 -0.9987,0.6635 -1.598,0.6635 h -3.8926 l 1.6319,81.915 c 1.4863,9.415 7.3234,17.8366 19.4067,17.8366 2.6019,-0.0415 5.1902,-0.3932 7.7106,-1.0462 17.3875,-4.184 29.2927,-22.2207 29.2927,-22.2207 -2.2668,-2.075 -4.7177,-3.9364 -7.3241,-5.5661 16.1435,-11.4138 23.9062,-38.331 23.9062,-38.331 13.5689,32.0863 -1.5081,57.7279 -1.5081,57.7279 z"
     style="fill:#ffffff;fill-rule:evenodd"
     id="path244" />
  <path
     d="m 571.5108,416.5296 29.9932,-0.3872 -29.9932,3.359 z"
     style="fill:#ffffff;fill-rule:evenodd"
     id="path246" />
  <path
     d="m 555.7907,416.5296 -29.9834,-0.3872 29.9834,3.359 z"
     style="fill:#ffffff;fill-rule:evenodd"
     id="path248" />
  <path
     d="m 583.9791,381.3696 c -0.006,1.2281 -0.1246,2.4539 -0.3555,3.6609 0.5389,-1.8312 0.8122,-3.7296 0.8167,-5.6386 -0.1223,-5.4227 -2.3626,-10.5827 -6.2417,-14.375 -3.8783,-3.7915 -9.0867,-5.9148 -14.5109,-5.9148 -5.4227,0 -10.631,2.1233 -14.5093,5.9148 -3.8783,3.7923 -6.1194,8.9523 -6.241,14.375 0.004,1.909 0.2771,3.8074 0.8168,5.6386 -0.2318,-1.207 -0.3495,-2.4328 -0.3556,-3.6609 0,-11.0583 9.0807,-20.7148 20.2854,-20.7148 11.2039,0 20.2951,9.6565 20.2951,20.7148 z"
     style="fill:#ffffff;fill-rule:evenodd"
     id="path250" />
  <path
     d="m 646.5855,479.1028 c 1.9354,14.3418 1.6674,28.8926 -0.7948,43.1544 7.8668,-20.6106 0.7948,-43.1544 0.7948,-43.1544 z"
     style="fill:#ffffff;fill-rule:evenodd"
     id="path252" />
  <path
     d="m 480.5537,479.1028 c 0,0 -7.072,22.5438 0.7948,43.1544 -2.4622,-14.2618 -2.7294,-28.8126 -0.7948,-43.1544 z"
     style="fill:#ffffff;fill-rule:evenodd"
     id="path254" />
  <path
     d="m 599.6645,543.9646 c -8.8414,2.3747 -19.4905,1.2244 -24.6792,-7.198 -1.7112,-2.6419 -2.9257,-5.5737 -3.5885,-8.6519 0.3193,3.1997 1.2757,6.3013 2.814,9.1236 5.0008,9.4165 16.4048,11.0357 25.893,8.5379 12.5543,-3.2556 22.8472,-12.4403 29.8158,-23.0178 -8.0571,9.5011 -18.0782,18.0586 -30.2551,21.2062 z"
     style="fill:#ffffff;fill-rule:evenodd"
     id="path256" />
  <path
     d="m 527.1713,543.9646 c -12.2305,-3.1378 -22.2517,-11.7051 -30.2664,-21.2258 6.9678,10.5971 17.315,19.7818 29.8271,23.0148 9.4784,2.5007 20.9224,0.8892 25.8816,-8.5372 1.5436,-2.82 2.5,-5.9216 2.8155,-9.1213 -0.6627,3.0774 -1.8787,6.0077 -3.5884,8.6518 -5.1887,8.4421 -15.8394,9.5924 -24.6694,7.2177 z"
     style="fill:#ffffff;fill-rule:evenodd"
     id="path258" />
  <path
     d="m 682.3048,611.2963 -20.9246,-31.4591 c -0.385,-0.579 -0.8885,-1.0704 -1.4757,-1.4455 -0.5873,-0.3759 -1.244,-0.625 -1.9331,-0.7329 -0.6869,-0.108 -1.3897,-0.0725 -2.0653,0.1034 -0.6725,0.1781 -1.302,0.4914 -1.847,0.9246 -12.8057,10.1397 -27.1113,18.2262 -42.4019,23.9682 -15.468,5.5736 -31.7889,8.4058 -48.2291,8.3703 -12.5521,0.0355 -25.0506,-1.6221 -37.1588,-4.9291 -15.0566,-4.2421 -29.3388,-10.8605 -42.3083,-19.6044 -3.6307,-2.4162 -7.2713,-5.043 -10.7963,-7.7952 -0.5473,-0.431 -1.1768,-0.7442 -1.8516,-0.9224 -0.6733,-0.1758 -1.3761,-0.2098 -2.0652,-0.0996 -0.6869,0.1079 -1.3459,0.3593 -1.9309,0.7345 -0.5873,0.3759 -1.0885,0.8688 -1.4757,1.45 l -20.9224,31.4477 c -0.6733,1.0123 -0.9586,2.2328 -0.8031,3.4368 0.1562,1.2062 0.7412,2.315 1.65,3.122 7.9084,6.9897 50.7496,41.8478 117.82,42.7151 h 0.0619 c 67.0803,-0.8469 109.9215,-35.7254 117.82,-42.7151 0.9111,-0.807 1.4984,-1.9196 1.6516,-3.1281 0.154,-1.2084 -0.1359,-2.4305 -0.8145,-3.4412 z m -2.4909,4.7078 c -8.599,7.5952 -50.3819,41.2614 -116.2183,42.0879 -65.8242,-0.8265 -107.6086,-34.5252 -116.2084,-42.0879 -0.4635,-0.4098 -0.7631,-0.9752 -0.8431,-1.5881 -0.0778,-0.6152 0.0679,-1.2364 0.4136,-1.7497 l 20.9247,-31.447 c 0.2294,-0.3472 0.5389,-0.631 0.9043,-0.8303 0.3638,-0.1978 0.7729,-0.3057 1.1865,-0.3103 0.5767,0.002 1.1361,0.1978 1.5912,0.5533 3.5575,2.7906 7.2079,5.4265 10.9526,7.9091 13.1952,8.8814 27.7144,15.6115 43.0186,19.9412 28.6458,7.7196 58.9666,6.4968 86.8946,-3.5047 15.5382,-5.8281 30.0732,-14.0421 43.0827,-24.3456 0.2755,-0.2196 0.5948,-0.3789 0.9367,-0.4687 0.3435,-0.0906 0.699,-0.108 1.0485,-0.0544 0.3495,0.0559 0.6831,0.1842 0.9805,0.3737 0.2974,0.1917 0.551,0.4415 0.7473,0.7367 l 20.9239,31.447 c 0.3593,0.5019 0.5254,1.1149 0.4672,1.7278 -0.0581,0.6129 -0.3351,1.1843 -0.7805,1.61 z"
     style="fill:#21324b;fill-rule:evenodd"
     id="path260" />
  <path
     d="m 543.85,500.6841 v -3.285 h -2.5105 v -2.2811 h -5.4944 v -4.843 h -3.5568 l -2.4366,4.843 h -1.2983 -0.6046 -3.2858 -5.462 -0.3034 l -1.7874,2.2811 h -2.6684 l -2.5747,3.285 h -8.7651 l 5.5759,6.9679 h 37.5046 l 3.0117,-6.9679 z"
     style="fill:#21324b;fill-rule:evenodd"
     id="path262" />
  <path
     d="m 477.5465,623.6151 9.3561,-20.8182 4.4022,1.9769 -7.725,17.1912 8.9251,4.0105 -1.6319,3.6292 z"
     style="fill:#21324b;fill-rule:evenodd"
     id="path264" />
  <path
     d="m 539.3007,631.8971 c -0.5797,2.4207 -1.5323,4.3697 -2.8563,5.8477 -1.3164,1.4802 -2.8699,2.4804 -4.6611,2.9982 -1.7799,0.5133 -3.6488,0.5351 -5.6084,0.0679 -1.9731,-0.474 -3.6345,-1.3466 -4.9887,-2.617 -1.3541,-1.2719 -2.2811,-2.8653 -2.786,-4.7826 -0.5035,-1.9158 -0.4658,-4.0806 0.1117,-6.4931 0.5789,-2.4207 1.5278,-4.3719 2.8457,-5.8514 1.3164,-1.4802 2.8661,-2.4766 4.6475,-2.9899 1.7814,-0.5216 3.6586,-0.545 5.6325,-0.0717 1.9588,0.4695 3.6142,1.3398 4.9668,2.6102 1.364,1.2659 2.2962,2.8578 2.7997,4.7728 0.511,1.9195 0.4778,4.0882 -0.1034,6.5089 z m -4.7577,-1.1405 c 0.3759,-1.5678 0.4574,-2.9454 0.246,-4.1358 -0.206,-1.1866 -0.6635,-2.1588 -1.376,-2.9181 -0.7111,-0.7586 -1.6357,-1.2742 -2.7702,-1.5459 -1.1345,-0.271 -2.1913,-0.231 -3.1696,0.1223 -0.979,0.3532 -1.8312,1.0122 -2.5581,1.9769 -0.7216,0.9669 -1.2681,2.2327 -1.644,3.8005 -0.3752,1.5678 -0.4612,2.9461 -0.2574,4.1342 0.2113,1.1881 0.6748,2.1634 1.3859,2.922 0.7133,0.7586 1.6357,1.2741 2.7702,1.5459 1.1345,0.2717 2.1905,0.2294 3.1695,-0.1238 0.9783,-0.3533 1.829,-1.013 2.5483,-1.9792 0.7292,-0.9647 1.2802,-2.2313 1.6554,-3.799 z"
     style="fill:#21324b;fill-rule:evenodd"
     id="path266" />
  <path
     d="m 567.3524,624.6658 -1.1307,22.7974 -4.8211,-0.2377 1.133,-22.7974 z"
     style="fill:#21324b;fill-rule:evenodd"
     id="path268" />
  <path
     d="m 602.0369,643.2649 -8.0903,0.8091 -2.2826,-22.8253 8.1582,-0.8152 c 2.297,-0.2295 4.3177,0.0302 6.0651,0.7767 1.7497,0.7413 3.1537,1.9173 4.2165,3.5311 1.0681,1.6116 1.721,3.6013 1.9588,5.9715 0.2377,2.3784 -0.008,4.4656 -0.7367,6.2651 -0.7209,1.7972 -1.8713,3.2374 -3.4511,4.3199 -1.5739,1.0809 -3.5191,1.7353 -5.8379,1.9671 z m -3.6783,-3.8082 3.0654,-0.3057 c 1.4259,-0.1441 2.6004,-0.5155 3.5228,-1.1186 0.9307,-0.6107 1.5881,-1.4757 1.9716,-2.5944 0.3895,-1.1285 0.4989,-2.5423 0.3291,-4.2436 -0.1698,-1.6856 -0.5548,-3.0397 -1.1602,-4.0603 -0.597,-1.0205 -1.4077,-1.7353 -2.4328,-2.1429 -1.0243,-0.4076 -2.2486,-0.539 -3.6745,-0.3978 l -3.0775,0.3079 z"
     style="fill:#21324b;fill-rule:evenodd"
     id="path270" />
  <path
     d="m 642.3713,613.3034 c -0.3193,-0.8424 -0.8726,-1.4176 -1.6531,-1.721 -0.7835,-0.3058 -1.7338,-0.3058 -2.854,-0.005 -0.7594,0.2061 -1.3723,0.4876 -1.8373,0.8432 -0.468,0.3495 -0.791,0.7488 -0.9707,1.1986 -0.1721,0.4454 -0.194,0.9066 -0.0664,1.3799 0.0921,0.397 0.268,0.7186 0.5276,0.9646 0.2657,0.2454 0.5888,0.4311 0.9707,0.5594 0.379,0.1192 0.8009,0.2015 1.2659,0.2453 0.4657,0.0362 0.9511,0.0438 1.4621,0.0219 l 2.1067,-0.0619 c 1.019,-0.0461 1.9792,0.004 2.8805,0.1457 0.8982,0.1419 1.7134,0.3932 2.4441,0.7593 0.7292,0.3654 1.3519,0.8583 1.8652,1.4818 0.5238,0.6212 0.9111,1.3881 1.167,2.3045 0.357,1.3504 0.3291,2.6124 -0.0861,3.7869 -0.4076,1.164 -1.1768,2.1928 -2.3068,3.0835 -1.1247,0.8809 -2.5822,1.564 -4.3757,2.0471 -1.7799,0.4809 -3.4035,0.6273 -4.8694,0.4393 -1.4599,-0.1917 -2.7038,-0.7208 -3.7304,-1.5896 -1.0228,-0.8787 -1.7678,-2.1053 -2.2313,-3.6806 l 4.5079,-1.2183 c 0.2498,0.7247 0.6295,1.284 1.1367,1.6795 0.5111,0.3835 1.1164,0.6167 1.8154,0.6967 0.705,0.0717 1.4576,0 2.2607,-0.2174 0.7903,-0.2136 1.444,-0.5133 1.9633,-0.899 0.5247,-0.3895 0.8945,-0.831 1.1081,-1.3277 0.2114,-0.4959 0.2454,-1.0092 0.1019,-1.5399 -0.1336,-0.4951 -0.3932,-0.871 -0.7767,-1.1284 -0.3797,-0.2597 -0.8786,-0.4333 -1.5044,-0.5194 -0.6151,-0.086 -1.3519,-0.1177 -2.2063,-0.0958 l -2.5627,0.046 c -1.9791,0.0498 -3.639,-0.2597 -4.9728,-0.9307 -1.3361,-0.6695 -2.2207,-1.8199 -2.6525,-3.4511 -0.3691,-1.3323 -0.3276,-2.5928 0.12,-3.7847 0.4552,-1.1926 1.2387,-2.2388 2.3491,-3.1393 1.1118,-0.9013 2.4698,-1.5678 4.0776,-2.0011 1.6357,-0.4438 3.1378,-0.5495 4.5078,-0.32 1.3783,0.2294 2.5423,0.7487 3.4934,1.5617 0.9503,0.813 1.6153,1.8735 1.9905,3.1793 z"
     style="fill:#21324b;fill-rule:evenodd"
     id="path272" />
  <path
     d="m 377.357,763.7494 c -6.0416,0 -11.1503,0.0317 -15.3283,0.0959 -4.178,0.0958 -7.4713,0.274 -9.8815,0.5314 l -0.0981,-7.6653 h 3.7122 c 0.739,0 1.4304,0 2.0736,0 0.6748,-0.0317 1.3337,-0.0959 1.9769,-0.1933 0.16,-1.093 0.2717,-2.1852 0.3359,-3.2774 0.0973,-1.1247 0.1456,-2.2826 0.1456,-3.4715 v -41.7467 c 0,-1.0605 -0.0483,-1.9905 -0.1456,-2.7959 -0.0959,-0.8348 -0.2242,-1.5738 -0.3858,-2.2169 -0.6091,-0.1276 -1.2522,-0.1932 -1.927,-0.1932 -0.6432,-0.0325 -1.3346,-0.0483 -2.0736,-0.0483 h -5.1585 v -6.5067 c 2.8284,-0.3215 5.6084,-0.5472 8.3401,-0.6748 2.7642,-0.1615 5.6084,-0.2415 8.5319,-0.2415 3.6647,0 6.9905,0.0475 9.9804,0.1456 3.0193,0.0959 5.6876,0.3057 8.0004,0.625 v 6.6524 h -5.2045 c -0.739,0 -1.4463,0.0158 -2.1211,0.0483 -0.6431,0 -1.2862,0.0656 -1.9294,0.1932 -0.3215,1.1889 -0.4815,2.8601 -0.4815,5.0128 v 48.6889 h 14.2202 c 1.7671,0 3.2631,-0.2416 4.4837,-0.7232 1.2538,-0.5148 2.3302,-1.2696 3.2292,-2.2667 0.9005,-0.9941 1.6712,-2.2487 2.3143,-3.7583 0.6431,-1.5119 1.2364,-3.2798 1.7836,-5.3027 l 7.5672,1.0107 -1.8795,18.0782 c -2.7959,0.0959 -5.5435,0.1759 -8.242,0.2416 -2.6683,0.0641 -5.3367,0.0958 -8.0027,0.0958 -2.8276,0 -5.4159,-0.0634 -7.7604,-0.1932 -2.3151,-0.0959 -4.3403,-0.1442 -6.0757,-0.1442 z m 134.369,-33.8398 c 0,5.5578 -0.7873,10.5254 -2.3612,14.8951 -1.5436,4.3372 -3.7764,8.0344 -6.7006,11.0877 -2.9257,3.0201 -6.4606,5.3344 -10.6069,6.9406 -4.144,1.5754 -8.7892,2.3627 -13.9296,2.3627 -5.2385,0 -9.9479,-0.8032 -14.1244,-2.411 -4.1455,-1.6395 -7.6812,-3.9681 -10.6069,-6.9897 -2.8917,-3.0518 -5.1087,-6.7489 -6.6523,-11.0862 -1.5421,-4.372 -2.3128,-9.3048 -2.3128,-14.7992 0,-5.6242 0.7707,-10.6227 2.3128,-14.9924 1.5761,-4.4037 3.8089,-8.1145 6.7021,-11.1361 2.9242,-3.02 6.4591,-5.3185 10.6054,-6.8923 4.178,-1.5761 8.8693,-2.3626 14.0761,-2.3626 5.2061,0 9.8815,0.8031 14.0278,2.4101 4.144,1.5739 7.6653,3.8889 10.557,6.9422 2.9235,3.0201 5.1563,6.7323 6.7006,11.1345 1.5414,4.372 2.3129,9.3365 2.3129,14.8966 z m -50.8077,0.1442 c 0,8.9326 1.4297,15.779 4.2897,20.5344 2.8601,4.7569 7.1656,7.1362 12.9197,7.1362 2.7317,0 5.1562,-0.5632 7.2773,-1.6878 2.1233,-1.1247 3.9063,-2.8284 5.3525,-5.111 1.478,-2.3128 2.5861,-5.2046 3.325,-8.6753 0.7715,-3.5031 1.1564,-7.6177 1.1564,-12.3407 0,-9.2889 -1.4779,-16.2628 -4.4338,-20.9224 -2.9575,-4.6913 -7.1838,-7.038 -12.6774,-7.038 -5.4642,0 -9.7064,2.3309 -12.7265,6.9905 -2.9891,4.6271 -4.4829,11.6651 -4.4829,21.1141 z m 89.2942,34.3229 v -7.6653 h 5.111 c 0.7389,0 1.4304,0 2.0727,0 0.6756,-0.0317 1.3346,-0.0959 1.9777,-0.1933 0.3532,-1.2522 0.5291,-2.9717 0.5291,-5.157 v -41.6983 c 0,-1.6078 -0.0317,-2.9242 -0.0958,-3.9523 -0.0642,-1.0288 -0.2099,-1.9294 -0.4333,-2.7008 -0.6114,-0.1276 -1.2545,-0.1932 -1.9294,-0.1932 -0.6431,-0.0325 -1.3338,-0.0483 -2.0727,-0.0483 h -5.1593 v -6.5067 c 2.8306,-0.3215 5.6084,-0.5472 8.3401,-0.6748 2.7642,-0.1615 5.6084,-0.2415 8.5341,-0.2415 3.6632,0 6.9724,0.0475 9.9298,0.1456 2.9877,0.0959 5.6401,0.3057 7.9529,0.625 v 6.6524 h -5.157 c -0.739,0 -1.4455,0.0158 -2.121,0.0483 -0.6432,0 -1.2855,0.0656 -1.9286,0.1932 -0.1601,0.6431 -0.2899,1.3662 -0.3858,2.1694 -0.0641,0.7707 -0.0958,1.7195 -0.0958,2.8434 v 43.2405 c 0,1.127 0.0317,2.1211 0.0958,2.9899 0.0959,0.8348 0.2257,1.5897 0.3858,2.2652 0.6431,0.0974 1.2854,0.1616 1.9286,0.1933 0.6755,0 1.382,0 2.121,0 h 5.1087 v 7.6653 c -3.0193,-0.2574 -5.8635,-0.4356 -8.5318,-0.5314 -2.6676,-0.0642 -5.2061,-0.0959 -7.617,-0.0959 -2.9235,0 -5.8953,0.0317 -8.9176,0.0959 -3.0216,0.0958 -6.2349,0.274 -9.6422,0.5314 z m 96.5768,-61.4629 v 53.7017 c 0.3216,0.0642 0.6273,0.0959 0.9149,0.0959 0.3215,0 0.6431,0 0.9646,0 4.7887,0 8.9033,-0.4492 12.34,-1.3497 3.4715,-0.9012 6.3149,-2.395 8.5341,-4.4837 2.217,-2.121 3.8564,-4.8852 4.917,-8.2903 1.0605,-3.439 1.5897,-7.6811 1.5897,-12.7279 0,-4.6596 -0.3692,-8.6919 -1.1081,-12.0984 -0.739,-3.4073 -1.9452,-6.2198 -3.6149,-8.436 -1.6403,-2.217 -3.8089,-3.8572 -6.5089,-4.9178 -2.6985,-1.0922 -5.9934,-1.6394 -9.8823,-1.6394 -1.2862,0 -2.6019,0.0324 -3.9523,0.0981 -1.3179,0.0317 -2.7158,0.0475 -4.1938,0.0475 z m -0.2415,60.8356 c -4.2105,0 -8.356,0.0317 -12.4366,0.0959 -4.0822,0.0958 -8.2118,0.1781 -12.3883,0.2415 v -7.038 l 3.6632,-0.0476 c 0.7707,0 1.5255,-0.0158 2.2645,-0.0483 0.7412,-0.0657 1.4636,-0.1774 2.1709,-0.3374 0.7072,-0.4189 1.1564,-1.1262 1.3481,-2.1211 0.194,-0.9963 0.2898,-2.2026 0.2898,-3.6164 v -41.1194 c 0,-1.2847 -0.0641,-2.4267 -0.1917,-3.4216 -0.0981,-1.0281 -0.2257,-1.9611 -0.3857,-2.7959 -0.739,-0.1298 -1.5278,-0.1932 -2.3626,-0.1932 -0.8032,-0.0325 -1.6395,-0.0483 -2.5068,-0.0483 h -4.8211 v -6.6524 c 4.917,-0.4498 10.2679,-0.7873 16.0537,-1.0129 5.7835,-0.2574 12.1943,-0.385 19.2324,-0.385 5.4959,0 10.4612,0.6106 14.8965,1.8312 4.4339,1.1904 8.2103,3.1658 11.3278,5.9292 3.1499,2.7325 5.5767,6.3157 7.2796,10.7511 1.7036,4.4338 2.5543,9.898 2.5543,16.3888 0,4.7253 -0.5291,8.8368 -1.5897,12.34 -1.028,3.4715 -2.5083,6.4606 -4.4353,8.9674 -1.8954,2.4743 -4.2263,4.5154 -6.9898,6.1209 -2.7325,1.5761 -5.8001,2.8284 -9.2074,3.7613 -3.4073,0.9006 -7.1173,1.5256 -11.136,1.8788 -3.984,0.354 -8.1945,0.5314 -12.6298,0.5314 z m 101.733,-52.4954 c 0,1.5104 0.2574,2.8442 0.7707,4.0006 0.5155,1.1247 1.2221,2.1369 2.1211,3.0374 0.9329,0.8673 2.041,1.6697 3.3273,2.4087 1.3179,0.7072 2.7642,1.3662 4.338,1.9776 3.1491,1.2538 6.2507,2.5702 9.3048,3.9523 3.0517,1.3497 5.7835,2.8918 8.1944,4.6271 2.4102,1.7037 4.3539,3.6647 5.8333,5.8817 1.478,2.1852 2.217,4.7569 2.217,7.7128 0,3.1816 -0.659,6.0417 -1.9769,8.5817 -1.2847,2.5068 -3.0843,4.6279 -5.3986,6.3632 -2.315,1.7354 -5.077,3.0677 -8.2925,4.0006 -3.2134,0.9322 -6.7165,1.398 -10.5065,1.398 -1.6403,0 -3.3598,-0.0959 -5.1593,-0.2899 -1.7988,-0.16 -3.5983,-0.4174 -5.4001,-0.7707 -1.767,-0.354 -3.5009,-0.7873 -5.2045,-1.3021 -1.6712,-0.5457 -3.2314,-1.1564 -4.6769,-1.8319 -1.4146,-0.6748 -2.6669,-1.4297 -3.7591,-2.2645 -1.0605,-0.8688 -1.8652,-1.801 -2.4102,-2.7959 0.0959,-0.933 0.2733,-1.9452 0.5292,-3.0374 0.2574,-1.093 0.5472,-2.2011 0.8688,-3.3258 0.3532,-1.1579 0.6906,-2.2985 1.0122,-3.4232 0.3533,-1.1239 0.6748,-2.2003 0.9624,-3.2292 l 10.7986,2.9401 c 0.2257,1.2198 0.4016,2.3302 0.5314,3.325 0.1283,0.9964 0.2718,1.8977 0.4333,2.7001 0.16,0.8031 0.354,1.5262 0.5797,2.1694 0.2234,0.6106 0.5608,1.1579 1.01,1.6394 0.5472,0.4809 1.2386,0.8824 2.0735,1.204 0.8363,0.2899 1.7195,0.5314 2.6517,0.7231 0.9307,0.1616 1.8637,0.2899 2.7967,0.3873 0.9646,0.0641 1.8312,0.0958 2.6019,0.0958 1.5119,0 2.8917,-0.2732 4.1462,-0.8205 1.2863,-0.545 2.3785,-1.284 3.2775,-2.2169 0.9322,-0.9307 1.6395,-2.0411 2.1211,-3.3251 0.5148,-1.2862 0.7729,-2.6524 0.7729,-4.0987 0,-1.9927 -0.4038,-3.7122 -1.2069,-5.1585 -0.8024,-1.478 -1.943,-2.7959 -3.4224,-3.9523 -1.4463,-1.1564 -3.1975,-2.2169 -5.2552,-3.1816 -2.0546,-0.9964 -4.3372,-2.0086 -6.844,-3.0374 -3.0533,-1.2523 -5.7677,-2.5385 -8.1462,-3.8565 -2.3784,-1.3481 -4.3878,-2.7943 -6.0258,-4.338 -1.6078,-1.5738 -2.8434,-3.2775 -3.7122,-5.1087 -0.8349,-1.8335 -1.2523,-3.8723 -1.2523,-6.1232 0,-2.7 0.625,-5.1743 1.8788,-7.4237 1.2522,-2.2804 3.0857,-4.2256 5.4944,-5.8333 2.4109,-1.6056 5.3684,-2.8601 8.8715,-3.7591 3.5032,-0.9005 7.5189,-1.3496 12.0509,-1.3496 2.1528,0 4.1621,0.16 6.0251,0.4815 1.8636,0.2891 3.6148,0.6907 5.2551,1.2063 1.6395,0.5132 3.1808,1.0922 4.6271,1.7353 1.478,0.6409 2.894,1.2998 4.2421,1.9754 -0.0641,2.3143 -0.3374,4.5954 -0.819,6.8456 -0.4815,2.2169 -0.9488,4.4021 -1.3979,6.5549 l -8.3884,0.0498 c -0.1593,-1.6712 -0.4175,-3.1831 -0.7707,-4.5312 -0.3533,-1.3821 -1.0764,-2.5566 -2.1686,-3.519 -0.6432,-0.5473 -1.4304,-1.013 -2.3627,-1.398 -0.899,-0.4197 -1.8478,-0.7548 -2.8442,-1.013 -0.9646,-0.2574 -1.927,-0.4332 -2.8917,-0.5306 -0.933,-0.1283 -1.7354,-0.1917 -2.4109,-0.1917 -1.318,0 -2.5385,0.2075 -3.6647,0.625 -1.0923,0.3872 -2.0388,0.9646 -2.8443,1.7353 -0.7706,0.773 -1.3813,1.7195 -1.8312,2.8457 -0.4491,1.1247 -0.6748,2.4087 -0.6748,3.8565 z"
     style="fill:#3f5260;fill-rule:evenodd"
     id="path274" />
  <path
     d="m 349.3226,798.1387 h 25.4937"
     style="fill:none;stroke:#3f5260;stroke-width:0.8317;stroke-linecap:butt;stroke-linejoin:miter;stroke-dasharray:none"
     id="path276" />
  <path
     d="m 763.2038,800.136 h 25.4937"
     style="fill:none;stroke:#3f5260;stroke-width:0.8317;stroke-linecap:butt;stroke-linejoin:miter;stroke-dasharray:none"
     id="path278" />
  <path
     d="m 393.8992,809.7979 -5.9255,-17.1875 h -0.126 c 0.0279,0.3834 0.0604,0.911 0.0981,1.576 0.0377,0.6666 0.0702,1.3799 0.0981,2.1407 0.028,0.7587 0.0415,1.4856 0.0415,2.1808 v 11.29 h -3.0676 v -20.5805 h 4.7434 l 5.702,16.4281 h 0.0837 l 5.8975,-16.4281 h 4.7313 v 20.5805 h -3.2231 v -11.4576 c 0,-0.6295 0.007,-1.3104 0.0279,-2.0411 0.028,-0.7329 0.0559,-1.4281 0.0838,-2.0848 0.0377,-0.6575 0.0657,-1.1828 0.0838,-1.5761 h -0.1117 l -6.1511,17.1596 z m 24.9086,-15.8794 c 1.9716,0 3.4594,0.437 4.4618,1.3104 1.0145,0.8726 1.5218,2.2328 1.5218,4.0821 v 10.4869 h -2.3529 l -0.6325,-2.2109 h -0.1125 c -0.4408,0.5631 -0.8967,1.0288 -1.3655,1.3941 -0.4695,0.3654 -1.0129,0.6394 -1.6319,0.8168 -0.6114,0.1879 -1.3564,0.2815 -2.2388,0.2815 -0.9285,0 -1.7595,-0.1698 -2.4925,-0.5072 -0.7307,-0.3473 -1.3081,-0.8726 -1.7316,-1.5754 -0.4212,-0.705 -0.6333,-1.5957 -0.6333,-2.6743 0,-1.6056 0.5971,-2.8125 1.7875,-3.6187 1.2024,-0.8069 3.014,-1.2523 5.4348,-1.3368 l 2.7015,-0.0996 v -0.8168 c 0,-1.0786 -0.2536,-1.847 -0.7586,-2.309 -0.4974,-0.4589 -1.2025,-0.6884 -2.1128,-0.6884 -0.779,0 -1.5338,0.1117 -2.2652,0.3374 -0.733,0.2257 -1.4455,0.5035 -2.1407,0.8303 l -1.0681,-2.3362 c 0.7586,-0.4038 1.6236,-0.7314 2.5898,-0.985 0.9745,-0.2537 1.989,-0.3812 3.0397,-0.3812 z m 2.7023,8.4322 -2.0131,0.0717 c -1.6516,0.0559 -2.8103,0.3374 -3.4768,0.8447 -0.665,0.5057 -0.9986,1.2001 -0.9986,2.0833 0,0.7684 0.2294,1.3323 0.6884,1.6878 0.4619,0.3472 1.0666,0.5208 1.8176,0.5208 1.1443,0 2.0909,-0.3238 2.842,-0.9707 0.7608,-0.6567 1.1405,-1.6199 1.1405,-2.8857 z m 17.2494,-8.4322 c 0.2634,0 0.5495,0.0143 0.859,0.0423 0.311,0.0294 0.5767,0.0656 0.8024,0.1132 l -0.3095,3.0978 c -0.1978,-0.0581 -0.4408,-0.0996 -0.7307,-0.1276 -0.2815,-0.0279 -0.5352,-0.0422 -0.7609,-0.0422 -0.591,0 -1.1541,0.0981 -1.69,0.2959 -0.5352,0.1879 -1.0085,0.4793 -1.4214,0.8725 -0.4113,0.3858 -0.7374,0.8689 -0.9707,1.4501 -0.2355,0.5812 -0.3517,1.2583 -0.3517,2.0267 v 8.1507 h -3.3235 v -15.5835 h 2.5905 l 0.4514,2.746 h 0.154 c 0.3095,-0.5532 0.6945,-1.0605 1.1541,-1.5202 0.4612,-0.4612 0.9866,-0.8265 1.5776,-1.0983 0.5994,-0.2815 1.2561,-0.4234 1.9694,-0.4234 z m 9.2965,0.2959 v 15.5835 h -3.3069 v -15.5835 z m -1.6312,-5.9677 c 0.505,0 0.9428,0.1359 1.3081,0.4076 0.3752,0.271 0.5631,0.7405 0.5631,1.4078 0,0.6567 -0.1879,1.1262 -0.5631,1.4077 -0.3653,0.2718 -0.8031,0.4076 -1.3081,0.4076 -0.5254,0 -0.973,-0.1358 -1.3383,-0.4076 -0.3555,-0.2815 -0.5352,-0.751 -0.5352,-1.4077 0,-0.6673 0.1797,-1.1368 0.5352,-1.4078 0.3653,-0.2717 0.8129,-0.4076 1.3383,-0.4076 z m 15.939,5.6718 c 1.7557,0 3.122,0.4551 4.0965,1.3662 0.9865,0.9005 1.4794,2.3506 1.4794,4.3494 v 10.1638 h -3.3091 v -9.5441 c 0,-1.2108 -0.2476,-2.1151 -0.7451,-2.7167 -0.4974,-0.6106 -1.2681,-0.9141 -2.3082,-0.9141 -1.512,0 -2.5627,0.4628 -3.1537,1.3919 -0.5835,0.9308 -0.8726,2.2766 -0.8726,4.0399 v 7.7431 h -3.3092 v -15.5835 h 2.5763 l 0.4649,2.1127 h 0.1842 c 0.3374,-0.5449 0.7548,-0.9903 1.2515,-1.3383 0.508,-0.357 1.0711,-0.6227 1.6901,-0.8024 0.6273,-0.1781 1.2802,-0.2679 1.955,-0.2679 z m 17.857,0 c 1.3874,0 2.58,0.2876 3.5749,0.859 0.9941,0.5729 1.7595,1.3836 2.2947,2.4366 0.5352,1.0499 0.8024,2.3082 0.8024,3.7726 v 1.7731 h -10.4031 c 0.0377,1.5097 0.4416,2.6744 1.21,3.4911 0.779,0.8167 1.8674,1.2243 3.2654,1.2243 0.9949,0 1.8878,-0.0936 2.6744,-0.2815 0.7993,-0.1978 1.6198,-0.4831 2.4645,-0.859 v 2.6887 c -0.779,0.3668 -1.5716,0.6348 -2.3785,0.8024 -0.8069,0.1698 -1.7738,0.2536 -2.9001,0.2536 -1.5292,0 -2.8774,-0.2951 -4.0398,-0.8869 -1.1549,-0.6009 -2.0614,-1.4916 -2.7181,-2.6736 -0.6477,-1.1828 -0.9708,-2.6525 -0.9708,-4.406 0,-1.7459 0.2952,-3.2291 0.887,-4.4497 0.591,-1.2206 1.4213,-2.149 2.4924,-2.7861 1.0681,-0.6393 2.3166,-0.9586 3.7447,-0.9586 z m 0,2.4924 c -1.0431,0 -1.8878,0.3374 -2.5347,1.0123 -0.6393,0.677 -1.0145,1.6659 -1.1262,2.9717 h 7.0939 c -0.008,-0.7782 -0.1396,-1.4696 -0.394,-2.0705 -0.2431,-0.5993 -0.619,-1.0688 -1.1262,-1.4062 -0.4975,-0.3397 -1.1345,-0.5073 -1.9128,-0.5073 z m 32.9929,7.7854 c 0,1.2198 -0.3019,2.2705 -0.9012,3.1529 -0.5911,0.8809 -1.4455,1.558 -2.5619,2.0275 -1.1089,0.4672 -2.4306,0.7027 -3.9704,0.7027 -0.7511,0 -1.4682,-0.0415 -2.1528,-0.1261 -0.6854,-0.0852 -1.3323,-0.2075 -1.9437,-0.3668 -0.6009,-0.1683 -1.1481,-0.3699 -1.6478,-0.6054 v -3.1816 c 0.8371,0.3654 1.7701,0.699 2.8027,1.0009 1.0318,0.2891 2.0826,0.4348 3.1529,0.4348 0.8733,0 1.5957,-0.1117 2.1671,-0.3374 0.5835,-0.2332 1.0145,-0.5631 1.2961,-0.9843 0.2815,-0.4333 0.4219,-0.9345 0.4219,-1.5082 0,-0.6091 -0.1638,-1.1239 -0.4914,-1.5474 -0.3298,-0.4212 -0.8273,-0.8069 -1.4923,-1.1541 -0.6567,-0.3555 -1.484,-0.7375 -2.4781,-1.1405 -0.6756,-0.2718 -1.324,-0.5813 -1.9437,-0.9292 -0.6091,-0.3473 -1.1541,-0.7549 -1.6312,-1.2236 -0.4793,-0.4695 -0.859,-1.0228 -1.1405,-1.6622 -0.274,-0.6468 -0.4091,-1.4077 -0.4091,-2.2803 0,-1.1624 0.277,-2.1588 0.8303,-2.9838 0.5631,-0.8273 1.3519,-1.4599 2.3649,-1.9015 1.0243,-0.4393 2.2146,-0.6612 3.5771,-0.6612 1.0779,0 2.0924,0.114 3.039,0.3374 0.9571,0.2257 1.8953,0.5458 2.8162,0.9586 l -1.0703,2.7167 c -0.8447,-0.348 -1.6659,-0.625 -2.4623,-0.8311 -0.7888,-0.2061 -1.5957,-0.3095 -2.423,-0.3095 -0.7125,0 -1.3179,0.108 -1.8154,0.3239 -0.4974,0.2151 -0.8763,0.5208 -1.1405,0.9141 -0.2536,0.3857 -0.3789,0.8454 -0.3789,1.3805 0,0.6009 0.1457,1.1081 0.4348,1.5195 0.3019,0.4038 0.7616,0.7752 1.3805,1.1126 0.6288,0.3374 1.4357,0.7126 2.4208,1.1262 1.136,0.4695 2.0984,0.9625 2.8857,1.478 0.7986,0.5156 1.4078,1.136 1.8312,1.8576 0.4212,0.7149 0.6333,1.6093 0.6333,2.6903 z m 11.2817,-10.2778 c 1.3882,0 2.58,0.2876 3.5749,0.859 0.9949,0.5729 1.7595,1.3836 2.2947,2.4366 0.5352,1.0499 0.8009,2.3082 0.8009,3.7726 v 1.7731 H 520.765 c 0.0355,1.5097 0.4409,2.6744 1.21,3.4911 0.779,0.8167 1.8675,1.2243 3.2654,1.2243 0.9949,0 1.8871,-0.0936 2.6744,-0.2815 0.7986,-0.1978 1.6191,-0.4831 2.4645,-0.859 v 2.6887 c -0.779,0.3668 -1.5723,0.6348 -2.3792,0.8024 -0.8084,0.1698 -1.7754,0.2536 -2.8993,0.2536 -1.53,0 -2.8782,-0.2951 -4.0406,-0.8869 -1.1541,-0.6009 -2.0607,-1.4916 -2.7182,-2.6736 -0.6468,-1.1828 -0.9707,-2.6525 -0.9707,-4.406 0,-1.7459 0.2959,-3.2291 0.887,-4.4497 0.591,-1.2206 1.4221,-2.149 2.4924,-2.7861 1.0688,-0.6393 2.3166,-0.9586 3.7447,-0.9586 z m 0,2.4924 c -1.0424,0 -1.8871,0.3374 -2.5347,1.0123 -0.6386,0.677 -1.0145,1.6659 -1.1262,2.9717 h 7.0939 c -0.008,-0.7782 -0.1397,-1.4696 -0.3933,-2.0705 -0.2438,-0.5993 -0.6189,-1.0688 -1.1262,-1.4062 -0.4974,-0.3397 -1.1345,-0.5073 -1.9135,-0.5073 z m 19.7396,-2.4924 c 0.2642,0 0.5495,0.0143 0.859,0.0423 0.3095,0.0294 0.5774,0.0656 0.8031,0.1132 l -0.3094,3.0978 c -0.1978,-0.0581 -0.4416,-0.0996 -0.733,-0.1276 -0.2815,-0.0279 -0.5337,-0.0422 -0.7593,-0.0422 -0.5911,0 -1.1542,0.0981 -1.6894,0.2959 -0.5351,0.1879 -1.0084,0.4793 -1.4221,0.8725 -0.4136,0.3858 -0.7367,0.8689 -0.9707,1.4501 -0.2355,0.5812 -0.3517,1.2583 -0.3517,2.0267 v 8.1507 h -3.3228 v -15.5835 h 2.5898 l 0.4514,2.746 h 0.154 c 0.3095,-0.5532 0.6952,-1.0605 1.1541,-1.5202 0.4597,-0.4612 0.9851,-0.8265 1.5761,-1.0983 0.6009,-0.2815 1.2583,-0.4234 1.9709,-0.4234 z m 9.5509,15.8794 -5.9255,-15.5835 h 3.5047 l 3.2096,9.1508 c 0.2053,0.5812 0.3932,1.21 0.5631,1.8856 0.1675,0.6763 0.2853,1.2439 0.3517,1.7029 h 0.1117 c 0.0657,-0.4771 0.194,-1.05 0.3812,-1.7173 0.188,-0.6748 0.3797,-1.2998 0.5775,-1.8712 l 3.2095,-9.1508 h 3.4911 l -5.9277,15.5835 z m 16.5881,-15.5835 v 15.5835 h -3.3092 v -15.5835 z m -1.6334,-5.9677 c 0.5072,0 0.9443,0.1359 1.3096,0.4076 0.3759,0.271 0.5639,0.7405 0.5639,1.4078 0,0.6567 -0.188,1.1262 -0.5639,1.4077 -0.3653,0.2718 -0.8024,0.4076 -1.3096,0.4076 -0.5254,0 -0.9707,-0.1358 -1.3361,-0.4076 -0.3578,-0.2815 -0.5352,-0.751 -0.5352,-1.4077 0,-0.6673 0.1774,-1.1368 0.5352,-1.4078 0.3654,-0.2717 0.8107,-0.4076 1.3361,-0.4076 z m 14.0979,21.8327 c -1.4741,0 -2.7506,-0.2853 -3.8307,-0.859 -1.0787,-0.5729 -1.909,-1.4493 -2.4902,-2.6321 -0.5812,-1.1821 -0.8733,-2.6842 -0.8733,-4.5056 0,-1.8953 0.32,-3.4428 0.9571,-4.6452 0.6386,-1.2002 1.5195,-2.0871 2.6464,-2.66 1.136,-0.5714 2.4359,-0.859 3.9002,-0.859 0.9285,0 1.7671,0.0936 2.5181,0.2815 0.7609,0.1797 1.404,0.3993 1.9294,0.6635 l -0.9843,2.6457 c -0.5737,-0.2355 -1.1602,-0.431 -1.7595,-0.591 -0.6016,-0.16 -1.1783,-0.2393 -1.7316,-0.2393 -0.9111,0 -1.672,0.2015 -2.2811,0.6046 -0.6008,0.4039 -1.0522,1.0047 -1.3519,1.8018 -0.2914,0.7986 -0.4355,1.7874 -0.4355,2.9695 0,1.1466 0.1502,2.1128 0.4498,2.9001 0.299,0.7789 0.7466,1.37 1.3376,1.7731 0.591,0.3955 1.3187,0.5917 2.1815,0.5917 0.8544,0 1.6191,-0.1019 2.2946,-0.3102 0.6749,-0.2053 1.3142,-0.4733 1.915,-0.8001 v 2.8714 c -0.591,0.3374 -1.2243,0.585 -1.9014,0.745 -0.6748,0.1698 -1.5059,0.2536 -2.4902,0.2536 z m 15.6998,-16.1609 c 1.3896,0 2.5822,0.2876 3.5764,0.859 0.9948,0.5729 1.7595,1.3836 2.2946,2.4366 0.5352,1.0499 0.8009,2.3082 0.8009,3.7726 v 1.7731 h -10.4008 c 0.0362,1.5097 0.4393,2.6744 1.21,3.4911 0.779,0.8167 1.8674,1.2243 3.2654,1.2243 0.9949,0 1.8878,-0.0936 2.6744,-0.2815 0.7986,-0.1978 1.6198,-0.4831 2.4645,-0.859 v 2.6887 c -0.779,0.3668 -1.5716,0.6348 -2.3785,0.8024 -0.8092,0.1698 -1.7754,0.2536 -2.9,0.2536 -1.5301,0 -2.8782,-0.2951 -4.0407,-0.8869 -1.1541,-0.6009 -2.0606,-1.4916 -2.7181,-2.6736 -0.6469,-1.1828 -0.97,-2.6525 -0.97,-4.406 0,-1.7459 0.2952,-3.2291 0.8862,-4.4497 0.5918,-1.2206 1.4221,-2.149 2.4925,-2.7861 1.0688,-0.6393 2.3173,-0.9586 3.7432,-0.9586 z m 0,2.4924 c -1.0409,0 -1.8856,0.3374 -2.5325,1.0123 -0.6393,0.677 -1.0145,1.6659 -1.127,2.9717 h 7.0939 c -0.008,-0.7782 -0.1396,-1.4696 -0.3932,-2.0705 -0.2438,-0.5993 -0.619,-1.0688 -1.1262,-1.4062 -0.4975,-0.3397 -1.136,-0.5073 -1.915,-0.5073 z m 22.318,8.9395 c 0,1.022 -0.2475,1.8848 -0.745,2.5898 -0.4974,0.7035 -1.2266,1.2387 -2.1829,1.604 -0.9489,0.3578 -2.1113,0.5352 -3.4911,0.5352 -1.0885,0 -2.0268,-0.08 -2.8156,-0.2393 -0.7789,-0.1502 -1.5164,-0.3857 -2.2093,-0.7035 v -2.8578 c 0.7412,0.3473 1.5715,0.6469 2.4909,0.9005 0.9284,0.2537 1.8071,0.3797 2.6321,0.3797 1.0885,0 1.8735,-0.1675 2.3505,-0.505 0.4794,-0.3479 0.7186,-0.8091 0.7186,-1.3805 0,-0.3374 -0.0973,-0.6386 -0.2951,-0.9006 -0.188,-0.2732 -0.545,-0.5487 -1.0704,-0.831 -0.5155,-0.2914 -1.2764,-0.6386 -2.2811,-1.0424 -0.9843,-0.3933 -1.8153,-0.7866 -2.4901,-1.1821 -0.6771,-0.3933 -1.1881,-0.8666 -1.5339,-1.4221 -0.3479,-0.5631 -0.5215,-1.2802 -0.5215,-2.1528 0,-1.3798 0.5434,-2.4268 1.6319,-3.1393 1.0983,-0.7232 2.5483,-1.0847 4.3493,-1.0847 0.9587,0 1.8599,0.0996 2.7046,0.2959 0.853,0.1872 1.6878,0.465 2.5045,0.8303 l -1.0409,2.4924 c -0.705,-0.3094 -1.4138,-0.5631 -2.1263,-0.7608 -0.7036,-0.2053 -1.4221,-0.3095 -2.1536,-0.3095 -0.8544,0 -1.5059,0.1321 -1.9573,0.3933 -0.4408,0.2641 -0.6604,0.6393 -0.6604,1.1269 0,0.3669 0.1079,0.6771 0.323,0.9307 0.2159,0.2514 0.5873,0.505 1.1127,0.7586 0.5351,0.2537 1.2764,0.5669 2.2244,0.9428 0.9292,0.357 1.7301,0.733 2.4072,1.1262 0.6846,0.3857 1.21,0.859 1.5753,1.4221 0.3654,0.5631 0.5495,1.29 0.5495,2.183 z m 20.2688,-16.133 c 2.6547,0 4.5939,0.545 5.8137,1.6335 1.2183,1.0884 1.8297,2.6124 1.8297,4.5757 0,0.8907 -0.1419,1.7392 -0.4235,2.5461 -0.2717,0.7986 -0.7209,1.5059 -1.3496,2.1271 -0.6296,0.6091 -1.4606,1.0922 -2.4925,1.45 -1.0228,0.3555 -2.2848,0.5329 -3.787,0.5329 h -2.195 v 7.7152 h -3.3794 v -20.5805 z m -0.2257,2.8019 h -2.3785 v 7.2494 h 1.8433 c 1.0605,0 1.9618,-0.1215 2.7023,-0.3676 0.7412,-0.2513 1.3043,-0.6506 1.69,-1.1956 0.385,-0.5435 0.5767,-1.2629 0.5767,-2.1536 0,-1.1918 -0.3615,-2.0788 -1.0847,-2.66 -0.7125,-0.5827 -1.8289,-0.8726 -3.3491,-0.8726 z m 28.6798,-2.8019 -7.1921,20.5805 H 658.81 l -7.1936,-20.5805 h 3.4632 l 4.3358,12.8955 c 0.1321,0.3737 0.2732,0.8288 0.4234,1.364 0.16,0.5352 0.3035,1.0741 0.4356,1.6199 0.1411,0.5427 0.249,1.0265 0.323,1.45 0.0763,-0.4235 0.1797,-0.9073 0.3095,-1.45 0.1419,-0.5458 0.2876,-1.0847 0.4378,-1.6199 0.1495,-0.5352 0.2914,-0.9949 0.4212,-1.3798 l 4.3501,-12.8797 z m 11.2816,20.5805 h -3.3929 v -17.7091 h -6.0236 v -2.8714 h 15.428 v 2.8714 h -6.0115 z m 19.5358,0 v -20.5805 h 3.3779 v 17.7083 h 8.7432 v 2.8722 z m 24.2595,0 h -3.3929 v -17.7091 h -6.0236 v -2.8714 h 15.428 v 2.8714 h -6.0115 z m 27.3151,-10.4869 c 0,2.3188 -0.431,4.2557 -1.2938,5.8137 -0.865,1.5474 -2.1173,2.7159 -3.7591,3.5047 -1.6432,0.779 -3.6224,1.1685 -5.9412,1.1685 h -5.7156 v -20.5805 h 6.3345 c 2.1309,0 3.9704,0.385 5.5186,1.1541 1.5497,0.7609 2.7461,1.8916 3.5907,3.393 0.8447,1.4923 1.2659,3.3416 1.2659,5.5465 z m -3.519,0.0974 c 0,-1.6893 -0.2673,-3.0775 -0.8024,-4.1659 -0.5254,-1.0885 -1.3044,-1.8954 -2.337,-2.42 -1.022,-0.536 -2.2849,-0.8032 -3.7862,-0.8032 h -2.8857 v 14.9487 h 2.392 c 2.4887,0 4.3463,-0.6333 5.576,-1.8992 1.2288,-1.2681 1.8433,-3.1536 1.8433,-5.6604 z"
     style="fill:#414141;fill-rule:evenodd"
     id="path280" />
</svg>
